<svg width="884" height="669" viewBox="0 0 884 669" fill="none" xmlns="http://www.w3.org/2000/svg">
<path d="M679.5 103.5L667.5 97.5L385.5 631.5L398.5 638.5L679.5 103.5Z" fill="#818285" stroke="#818285"/>
<path d="M607 126.5L595 120.5L346.5 591L359.5 598L607 126.5Z" fill="#818285" stroke="#818285"/>
<path d="M844.499 503.5L850.356 491.429L149.5 121.5L142.655 134.583L844.499 503.5Z" fill="#818285" stroke="#818285"/>
<path d="M870.5 457.5L876.357 445.429L145.498 59.8001L138.653 72.8826L870.5 457.5Z" fill="#818285" stroke="#818285"/>
<path d="M224.5 441.5L222 432.5L206.5 377.5H201V367.5L206.5 362L142 328L149 318L224.5 358H235.5L238 365H235.5V372V393.5L248.5 422H256L260 432.5L248.5 435.5L212.5 508L201 499.5L231.5 445.5L228.5 441.5H224.5Z" fill="#818285" stroke="#818285"/>
<path d="M246.5 366L250.5 368C259.7 340.8 282.667 337.333 293 339C303.4 337.4 323.333 351 332 358C336.8 366.8 336.333 375.333 335.5 378.5C331.7 403.7 311.917 417.667 302.5 421.5C285.3 425.9 275.667 419.667 273 416L259.5 421.5L275.5 431C283.1 433.8 296.667 434.167 302.5 434L309.5 461L307 470L291 479V484L296.5 487L302.5 484V477L309.5 471.5L318.5 466.5L326 470V474H330.5L333 479L338 477L342.5 471.5L340 464.5L330.5 463L328.5 466.5L318.5 461L309.5 431C317.1 431 328.333 417 333 410L367 425.5L369.5 417.5L338 399.5L342.5 390.5L346 380.5L353 378.5V370L367 364L376 361L386 366L393.5 370L397.5 361L388.5 335.5L384.5 332.5L379.5 331L372 349L358 350.5L347.5 353.5L346 347L342.5 345L338 349L318.5 339V335.5L326 322L328.5 323L330.5 318V316L335.5 302.5L326 299.5L311.5 326.5C297.9 318.5 281.167 320.167 274.5 322L273 314.5L275.5 306L270 283.5L277.5 265.5L273 264L261 280L256.5 281.5L209.5 256.5L204.5 265.5L250.5 291L253.5 296.5L261 299.5L268.5 323V328.5C258.5 331.7 248 343.5 244 349V353.5L250.5 359.5L246.5 366Z" fill="#818285" stroke="#818285"/>
<path d="M199.5 375.5L154 389H145.5L111.5 372L97 334.5L80.5 338.5L74 321L48.5 328L38.5 287L48.5 284.5V272L32.5 276.5L24 251H41L44.5 255H57.5L60.5 245L66 242.5V235L97 225.5L107 251L109.5 253.5L111.5 255H116L128 276.5L138.5 279L159 245L173.5 217.5L187.5 207.5L195 204L199.5 193.5L195 186.5L123 148.5H116V153.5L141 168.5L133.5 180.5L128 196H123V193.5L104 183L100.5 186.5L97 183L104 168.5H107L104 161L107 157L104 151L51.5 171.5L48.5 175H38.5H32.5L26.5 168.5L11 171.5L1 151L18 143.5V138.5L24 134.5V125.5H15L11 111.5L20.5 116L26.5 119L35.5 116L41 134.5L85.5 148.5L104 143.5V138.5L100.5 130L80.5 102L74 94L76.5 41L80.5 28.5L94.5 20L123 16L133.5 9V0" stroke="#818285"/>
<path d="M163.5 1L161.5 6.5L173 36L178.5 42.5L248 79.5L254.5 82.5L258.5 79.5V77L231 61.5L239.5 46L276.5 65.5L275 74.5L305.5 91L315 87.5L311.5 79.5L317.5 77L324 79.5L332.5 74.5V71.5L347.5 65.5L350 71.5L354 69.5L350 63.5L354 61.5L356.5 63.5L359 61.5L363.5 63.5L367.5 56L363.5 53.5L367.5 46L381 51.5L393 48L402 51.5L410 37.5L419.5 35L421 29L433 32.5L444 41L448 46L445.5 53.5L452 56V59.5L455.5 61.5L453.5 65.5L474.5 81L477 92L479 95.5L477 100.5L507.5 117L514 106.5L520.5 109L530 93L555 106.5L516.5 180.5L495 169.5L483.5 190.5L482.5 200.5L486.5 206L501.5 213.5H507.5L512 211.5L516.5 206L564 115L569 112.5L575 111L584.5 115L594.5 120L622 134.5L635 139.5L642 141" stroke="#818285"/>
<path d="M678.5 105.5L696.5 115.5L700.5 128L625 271.5V279.5L635.5 284.5L879.5 412.5L883.5 419.5V428L854.5 488L835 524L820.5 533H809.5L653.5 449L625 422L583.5 401.5H570.5L560.5 405L551 412.5L440 621.5L417.5 662.5L393.5 668.5H376L358 662.5L328 638L309.5 619V551L286.5 544.5L278.5 553.5H271.5L267.5 551H253L242.5 542L212.5 551L173 517L164.5 488.5L158 465.5L164.5 450.5L222 432.5" stroke="#818285"/>
<path d="M465 194L431 174.5V163L437 160.5L454.5 171L473 180.5L479 184.5L477 191L473 194H465Z" fill="#818285"/>
<path d="M412 137.5L431 148L432 151L423.5 166H412L387.5 152V144L410.5 155.5V152V148L407.5 145.5L412 137.5Z" fill="#818285"/>
<path d="M355 126.5L384 142L378 145.5H370.5L355 137.5L352.5 132.5L355 126.5Z" fill="#818285"/>
<path d="M324.5 110.5L349 124V126.5L345 130.5L335.5 126.5L322 119V114.5L324.5 110.5Z" fill="#818285"/>
<path d="M284.5 90.5L305.5 101L302.5 106H299L285.5 99.5L282.5 94.5L284.5 90.5Z" fill="#818285"/>
<path d="M264.5 80L279 87.5L274.5 92L268 90.5L263 85L264.5 80Z" fill="#818285"/>
<path d="M674.5 113.5L681.5 115L690 120L692.5 125L686.5 143.5L674.5 157.5L662.5 154.5L656 149M650.5 160.5H657.5L662.5 164L668 169.5L661.5 191L656 199.5L645.5 201L636 196.5L633.5 191M626.5 203L631.5 201L640.5 205.5L645.5 211.5V219.5L622.5 265L617 269H610L602 267L597 261.5M582.5 255L578.5 253.5L568.5 248.5L560 244L553 240L550 236M613.5 197.5L611.5 191L602 184.5L593 180.5L588 178L581.5 178.5L578.5 180.5M588 165.5V171L597 178L611.5 184.5H621M637.5 152C630.167 146.667 614.7 136.2 611.5 137H605.5H602M590.5 127.5L582.5 122L577 120L574 118L568.5 122L562 131.5L555 140.5L552 148L553 152L565 160.5H570L576 158.5M567 174.5V168L563 164.5L555 160.5H550L544.5 163L539.5 172L531 188L521 206.5L515.5 217.5V219.5L518 222.5L535.5 231L539.5 228.5M530 244.5V238L525.5 232.5L518 228.5L511 227L505.5 228.5L501.5 232.5L498 236L496.5 240V246M482.5 240L490 236L498 228.5L501.5 225.5V219.5L395 163L391 164.5L389 168V174.5L391 184.5L397 191L402.5 197.5M370.5 180.5L376 178.5L384 166L385 159.5L366 148L352.5 142H347L343.5 145.5V152L349 164.5L357.5 174.5M349 227L352.5 225.5L364 205L365.5 198.5L364 191M335.5 174.5L330 176L324.5 178.5L318.5 184.5L314 194L312.5 201.5L317.5 213.5M263 164.5L251.5 166L246 168L245 172.5M271 164.5H293.5H297L310.5 168L312.5 172.5L314 176L312.5 184.5L308 192L305.5 197.5L295.5 201.5M293.5 152V155.5L285.5 157.5H269.5L254 159.5L244.5 160.5L237.5 164.5L230.5 166M226.5 163L207 116V112.5L211 109M196 101L199 110V112.5L184 142M187.5 144L200.5 120.5H202H203.5L220 160.5M318.5 152L324.5 151C326.167 150.833 330.1 149.2 332.5 144C333 140.833 333.2 133.7 330 130.5L241.5 82.5C238.333 83.1667 232.2 86.5 233 94.5L239.5 110.5M211 96L218 94.5L226.5 82.5V74.5L187.5 53H184L182.5 55L184 63L190.5 80L196 90.5M394 206L378 208.5L367.5 213.5L361.5 219.5L360 222.5L361.5 227L384 225.5L407.5 228.5L428.5 231H434.5L437 227M442.5 277.5L449.5 273L460.5 263.5L465 255L462.5 248.5L449.5 242L388.5 233.5H378L375 235.5V242M494.5 258.5H479L472 260.5L462.5 267L457 273L452 277.5V285M578.5 265L576 258.5L562 251.5L544.5 244M591 269H593L610 277.5L611.5 282L610 288L602 299.5H597M431 174.5L465 194H473L477 191L479 184.5L473 180.5L454.5 171L437 160.5L431 163V174.5ZM431 148L412 137.5L407.5 145.5L410.5 148V152V155.5L387.5 144V152L412 166H423.5L432 151L431 148ZM384 142L355 126.5L352.5 132.5L355 137.5L370.5 145.5H378L384 142ZM349 124L324.5 110.5L322 114.5V119L335.5 126.5L345 130.5L349 126.5V124ZM305.5 101L284.5 90.5L282.5 94.5L285.5 99.5L299 106H302.5L305.5 101ZM279 87.5L264.5 80L263 85L268 90.5L274.5 92L279 87.5Z" stroke="#818285"/>
<path d="M565.5 390.5L576 397L555.5 401.5L558 397L562 390.5H565.5Z" fill="#818285"/>
<path d="M318.5 575.5L323 578.5V587.5C321.5 588.5 317.8 590.5 315 590.5C312.2 590.5 313.833 588.5 315 587.5V575.5H318.5Z" fill="#818285"/>
<path d="M325.5 568.5H331L333 564L331 560L323 558L321.5 560L323 564L325.5 568.5Z" fill="#818285"/>
<path d="M344 524.5L349 521.5L352.5 524.5L350 533.5L342.5 547.5L335 552L333 549L335 541L339 532.5L344 524.5Z" fill="#818285"/>
<path d="M363 509L356.5 512L354 509V500L361.5 488.5L372 467L375.5 458L379 449.5H385.5L388.5 457L384.5 466L377 484L370.5 500L363 509Z" fill="#818285"/>
<path d="M609.5 304.5V299L615 289L621 287H627.5L641.5 293L679.5 312.5L684.5 319L682.5 330.5L676.5 337.5H666.5M684.5 347V336L691.5 324.5H695L728.5 341.5L730 351L725.5 359.5L721.5 363.5H713.5M827 421.5L832 419.5L839.5 417.5L843 411V404C838.167 400 828.2 391.9 827 391.5C825.8 391.1 774.5 364.333 749 351H740L735.5 357.5L732 367.5V371.5M853.5 433.5L849.5 426V419.5L851 414.5L853.5 412.5L857 411H862L866.5 414.5L870 417.5L875 419.5L876 425L874 431L866.5 435.5L858.5 438M851 445L856 453L858.5 460L857 464L851 475L847.5 480L841 483H835M728.5 380L721.5 383.5L716.5 393.5L712 400.5L710 406.5L708 412.5V417.5M830.5 495V498L833.5 503.5V509L829 516.5L822.5 522.5L817 524.5L807.5 522.5L802 518.5L801 514.5L803.5 503.5L810 495L817 486.5M803.5 480L801 493L795 503.5L790 509H788H782.5L657.5 445L646.5 435V433.5L655.5 438L663.5 440.5H671.5L684.5 438L696.5 433.5L700 424.5M691.5 421V426.5L688.5 430.5L673.5 435L666.5 436.5L660 435L634.5 421L642 415.5L646.5 404.5L650.5 397M639 393.5L641.5 400.5V409L634.5 415.5H627.5H621L567.5 384.5V378L571.5 371.5L577.5 365L582.5 363.5M567.5 355.5L569.5 361.5L567.5 368L563.5 374.5L559.5 378H551.5L543 371.5L540.5 366.5M531 384.5L546.5 387L549.5 390.5L551.5 395.5L515 468.5L507 476L497.5 479L488.5 481L480 477.5M485 486.5L508.5 481L494.5 508L484.5 485.5M477 486.5L483.5 492.5L488.5 503.5V514.5L447.5 594.5L441 599.5H435L421 590.5M415.5 601.5L429 606L433 611L431.5 624.5L421 637H410.5L402.5 627.5M388.5 621.5L379 618L377 609L374.5 597.5L363.5 587.5M404.5 597.5L397.5 590.5L379 580.5L369.5 578.5M354 578.5L347 572H341V575.5L349 581.5H352.5M379 533.5L374.5 531L366.5 528L360 531L352.5 542L349 554L348 561L353.5 565L360 567M453.5 506.5L447.5 505L439 512L410.5 533.5L401 537H395H388.5M397.5 521.5V526.5L402.5 528L412 524.5L441 500L458.5 484L461 479V476L435 462.5H429M384.5 522.5L379 524.5L373 522.5L369.5 518.5L370.5 509L382 486.5L395 460.5L404.5 450.5H410.5L419.5 457M576 397L565.5 390.5H562L558 397L555.5 401.5L576 397ZM323 578.5L318.5 575.5H315V587.5C313.833 588.5 312.2 590.5 315 590.5C317.8 590.5 321.5 588.5 323 587.5V578.5ZM331 568.5H325.5L323 564L321.5 560L323 558L331 560L333 564L331 568.5ZM349 521.5L344 524.5L339 532.5L335 541L333 549L335 552L342.5 547.5L350 533.5L352.5 524.5L349 521.5ZM356.5 512L363 509L370.5 500L377 484L384.5 466L388.5 457L385.5 449.5H379L375.5 458L372 467L361.5 488.5L354 500V509L356.5 512Z" stroke="#818285"/>
<path d="M396 431C396 429.8 397.333 421.833 398 418L415 388.5L423 380.5L426.5 379V384L422 399.5L413.5 418L404.5 431L398 434L396 432M423 448.5C422.2 448.1 414.333 443 410.5 440.5L413.5 425.5L441 375.5C442.167 375.5 444.8 375.5 446 375.5C447.2 375.5 450.5 375.5 452 375.5L456.5 380.5V390.5" stroke="#818285"/>
<path d="M436 452V458L451 463.5H465.5L473 460L478.5 454.5M518 383C509.667 382 492.7 380 491.5 380C490.3 380 480.333 379 475.5 378.5M478.5 370C479.333 371.333 481.5 374 483.5 374C486 374 494 374 495.5 374C497 374 507.5 376 510 375C512 374.2 517.167 372.333 519.5 371.5V367L507.5 362L495.5 357.5L490.5 355.5L482 357.5M494 340C493.5 342.833 492.8 348.6 494 349C495.2 349.4 509.167 354.833 516 357.5L524.5 359L534 355.5M606 318.5L600 320.5L585.5 344.5V352L575.5 349V344.5H580.5L594.5 318.5L593 308M649 340L658 355.5V368.5L656.5 376.5L652 380L645 383M675 353L658 385.5L656.5 390.5M716.5 375L718 383L701 411H696M464.5 368.5C463.3 368.5 455 367.5 451 367L443.5 360V350L448.5 343L457.5 341.5L469 347L472.5 355.5M174.5 79.5L180 77L182.5 73.5L177 58.5L171.5 45L163 40L154 38L147.5 42L149.5 52.5L157.5 73.5M156 79.5L154 90L147.5 94.5L143 92.5L141 88.5L146 79.5L151 77M163 33L164.5 28L154 7.5L149.5 6L143 7.5L138 13.5L135.5 21L141 26C143.667 27.1667 149.4 29.6 151 30C152.6 30.4 159 32.1667 162 33M171.5 88.5L162 92.5L159 96L162 105.5V114.5L161 129.5M151 123L152.5 116.5L154 110.5L101 78L92 77L85.5 78L81.5 84V90L85.5 98.5L99.5 117.5L115 136L125 142L134 143.5L141 140.5L146 134M157.5 140.5H152.5L149.5 144.5L147.5 151.5C148.167 152.833 149.8 155.7 151 156.5C152.2 157.3 158.167 161.167 161 163H164.5L169 159L171.5 154.5V146M206.5 166L200 167C198.833 167.667 196.4 169.3 196 170.5C195.6 171.7 194.167 175 193.5 176.5L196 182L206.5 186.5L219.5 191.5L224.5 186.5L228 182V176.5M241 184L233.5 186.5L230 191.5L232 198.5C237 202 247.3 209.2 248.5 210C249.7 210.8 264.333 218.333 271.5 222L286 227L293.5 218L293 209" stroke="#818285"/>
</svg>
