<svg id="Layer_2" data-name="Layer 2" xmlns="http://www.w3.org/2000/svg" viewBox="0 0 50 50"><defs><style>.cls-1{fill:#90959a;}.cls-2{fill:#16171c;fill-rule:evenodd;}</style></defs><title>Ambulance_ic</title><circle class="cls-1" cx="25" cy="25" r="25"/><path class="cls-2" d="M38.41,18a.61.61,0,0,1-.59.59.6.6,0,0,1-.59-.59v-2a.61.61,0,0,1,.59-.6.61.61,0,0,1,.59.6Zm1,4.92V21.39a1.58,1.58,0,1,0-3.16,0V23Zm8.12,9.11-5.68-7.29a2.81,2.81,0,0,0-2.05-1H35.85a.42.42,0,0,1-.4-.39v-1a1.58,1.58,0,0,0-1.57-1.57H15.15a1.58,1.58,0,0,0-1.58,1.57V37.16a1.57,1.57,0,0,0,1.58,1.57h3.43a2.55,2.55,0,0,0,5,0H38.29a2.55,2.55,0,0,0,5,0h3.43a1.57,1.57,0,0,0,1.58-1.57v-3A3.9,3.9,0,0,0,47.52,32.07ZM21.06,28.88H19.68v1.38a.6.6,0,0,1-.59.59.61.61,0,0,1-.59-.59V28.88H17.12a.61.61,0,0,1-.59-.59.6.6,0,0,1,.59-.59H18.5V26.32a.61.61,0,0,1,.59-.6.61.61,0,0,1,.59.6V27.7h1.38a.6.6,0,0,1,.59.59A.6.6,0,0,1,21.06,28.88Zm11.83.39a1,1,0,0,1-1,1H26a1,1,0,0,1-1-1v-2a1,1,0,0,1,1-1h5.92a1,1,0,0,1,1,1Zm3,1a1,1,0,0,1-1-1v-2a1,1,0,0,1,1-1H38.8a2.18,2.18,0,0,1,1.58.78l1.78,2.37c.31.43.15.79-.4.79Zm3.94-10.65a.6.6,0,0,0,.43-.15l1.38-1.38a.57.57,0,0,0,0-.83.56.56,0,0,0-.82,0L39.4,18.63a.57.57,0,0,0,0,.83A.45.45,0,0,0,39.79,19.61Zm-3.94,0a.64.64,0,0,1-.44-.15L34,18a.59.59,0,0,1,0-.83.57.57,0,0,1,.83,0l1.42,1.42a.57.57,0,0,1,0,.83A.61.61,0,0,1,35.85,19.61Z" transform="translate(-4.39 -4.25)"/></svg>