<svg id="Layer_6" data-name="Layer 6" xmlns="http://www.w3.org/2000/svg" viewBox="0 0 40 39.93"><defs><style>.cls-1{fill:#90959a;}</style></defs><title>HospitalAdmitted_ic</title><path class="cls-1" d="M31,9.21a20,20,0,1,0,20,20A20,20,0,0,0,31,9.21ZM37.6,36.8a2.53,2.53,0,0,1-2.54-2.54,2.47,2.47,0,0,1,1.55-2.33V29.32a1.48,1.48,0,0,0-1.48-1.48,1.44,1.44,0,0,0-1.48,1.48v7.12a3.81,3.81,0,0,1-7.62,0V27.91a5.3,5.3,0,0,1-4.3-5.22V19.16a1,1,0,1,1,2,0v3.53a3.32,3.32,0,0,0,6.63,0V19.16a1,1,0,0,1,2,0v3.53A5.31,5.31,0,0,1,28,27.91v8.53a1.83,1.83,0,1,0,3.66,0V29.32a3.46,3.46,0,0,1,6.92,0v2.61a2.53,2.53,0,0,1-1,4.87Z" transform="translate(-11 -9.21)"/><path class="cls-1" d="M37.6,33.69a.57.57,0,1,0,.56.57A.55.55,0,0,0,37.6,33.69Z" transform="translate(-11 -9.21)"/></svg>