<svg id="Layer_5" data-name="Layer 5" xmlns="http://www.w3.org/2000/svg" viewBox="0 0 40 39.94"><defs><style>.cls-1{fill:#90959a;}</style></defs><title>TriagePerHour_ic</title><path class="cls-1" d="M30,9.06A20,20,0,1,0,50,29,20,20,0,0,0,30,9.06Zm8.92,17.09-12,11.9a4.29,4.29,0,0,1-2.49.74,4.08,4.08,0,0,1-2.93-1.24,4.22,4.22,0,0,1-1.24-3A4.33,4.33,0,0,1,21,32.19l12-12a4.15,4.15,0,0,1,2.54-.85,4.24,4.24,0,0,1,3.39,6.77Z" transform="translate(-10 -9.06)"/><path class="cls-1" d="M35.44,20.68a2.69,2.69,0,0,0-2,.84l-.5.51-4.63,4.63-5.92,5.92a2.85,2.85,0,0,0,.11,4,3.07,3.07,0,0,0,1.69.85,4,4,0,0,1-1.35-1.13,2.64,2.64,0,0,1-.23-1.64,1.76,1.76,0,0,1,.45-.84l6.15-6.1,3.16,3.16L37,26.15l.51-.45a2.84,2.84,0,0,0,.85-2,2.74,2.74,0,0,0-.85-2A2.6,2.6,0,0,0,35.44,20.68Z" transform="translate(-10 -9.06)"/></svg>