<svg id="Layer_3" data-name="Layer 3" xmlns="http://www.w3.org/2000/svg" viewBox="0 0 40 38.33"><defs><style>.cls-1{fill:#90959a;}</style></defs><title>WaitTime_ic</title><path class="cls-1" d="M29.26,10c-11.09,0-20,8.56-20,19.2s8.91,19.2,20,19.13,20-8.55,20-19.2S40.27,10,29.26,10Zm8.84,24.7a1.18,1.18,0,0,1-1.52.35l-8-4.94-.15-.07L28.39,30l-.07-.07-.08-.07-.07-.07-.07-.07v-.42l.07-12.52a1.09,1.09,0,0,1,1.09-1,1,1,0,0,1,1,1v12l7.47,4.59A1.09,1.09,0,0,1,38.1,34.71Z" transform="translate(-9.26 -10.01)"/></svg>