<svg id="Layer_1" data-name="Layer 1" xmlns="http://www.w3.org/2000/svg" xmlns:xlink="http://www.w3.org/1999/xlink" viewBox="0 0 50 50"><defs><style>.cls-1{fill:none;}.cls-2{fill:#90959a;}.cls-3{clip-path:url(#clip-path);}.cls-4{fill:#16171c;}</style><clipPath id="clip-path" transform="translate(-3.87 -5)"><rect class="cls-1" x="18.15" y="13.16" width="29.59" height="33.67"/></clipPath></defs><title>WalkIn_ic</title><circle class="cls-2" cx="25" cy="25" r="25"/><g class="cls-3"><path class="cls-4" d="M32.52,37.87a3.76,3.76,0,0,0-1-1.56L28.61,33.4l2.1-6.63c.11.18.25.36.39.57A3.81,3.81,0,0,0,33.73,29l3.28.5a1.61,1.61,0,0,0,.49-3.19l-3.27-.5a.77.77,0,0,1-.46-.28c-2.74-4-3.31-4.22-4.13-4.26L27,21.07c-.4,0-.86-.07-4.81,1.45a4,4,0,0,0-2.06,1.88l-1.78,3.54A1.64,1.64,0,0,0,19,30.11a2,2,0,0,0,.72.17,1.61,1.61,0,0,0,1.45-.88L23,25.85a.8.8,0,0,1,.36-.32c.28-.1.57-.21.82-.32l-1.32,5.71a3,3,0,0,0,.82,2.8l.64.64-3.67,10a1.85,1.85,0,0,0,1.11,2.37,2,2,0,0,0,.64.11,1.87,1.87,0,0,0,1.74-1.21l3.09-8.36,1.68,1.66a1,1,0,0,1,.1.18l2.28,6.49A1.82,1.82,0,0,0,33,46.84a1.87,1.87,0,0,0,.61-.11,1.81,1.81,0,0,0,1.13-2.34Z" transform="translate(-3.87 -5)"/><path class="cls-4" d="M28.86,20.32a3.58,3.58,0,1,0-3.59-3.58A3.58,3.58,0,0,0,28.86,20.32Z" transform="translate(-3.87 -5)"/><path class="cls-4" d="M47.53,34.57l-5-3.72a.57.57,0,0,0-.89.57L42,33.37H35.4a.47.47,0,0,0-.46.46v2.41a.47.47,0,0,0,.46.46H42l-.39,1.95a.57.57,0,0,0,.89.57l5-3.73A.6.6,0,0,0,47.53,34.57Z" transform="translate(-3.87 -5)"/></g></svg>