<svg width="420" height="640" viewBox="0 0 453 732" fill="none" xmlns="http://www.w3.org/2000/svg">
    <g id="Amenities" clip-path="url(#clip0_140_17477)">
        <g id="ship and metrics ">
            <g id="Group 976616">
                <path id="Ship body" opacity="0.9" d="M219.91 68.7741C223.682 65.4692 229.318 65.4692 233.09 68.7741L368.671 187.567C370.512 189.181 371.698 191.414 372.003 193.844L407.006 472.866C407.231 474.656 406.967 476.473 406.243 478.125L309.609 698.591C308.015 702.228 304.421 704.577 300.45 704.577H152.55C148.579 704.577 144.985 702.228 143.391 698.591L46.7574 478.125C46.0332 476.473 45.7694 474.656 45.994 472.866L80.9971 193.844C81.3019 191.414 82.4875 189.181 84.3293 187.567L219.91 68.7741Z" fill="#424E90" fill-opacity="0.1" stroke="#2F3C86" stroke-linecap="round" stroke-linejoin="round" stroke-dasharray="2 20 10 1 20 10"></path>
            </g>
            <g id="metrics">
                <g id="fuel">
                    <g id="Frame 11231341">
                        <path id="Title" d="M157.663 220V211.698H162.913V212.776H158.895V215.45H162.479V216.528H158.895V220H157.663ZM166.483 220.126C165.821 220.126 165.303 219.935 164.929 219.552C164.556 219.169 164.369 218.609 164.369 217.872V213.91H165.545V217.704C165.545 218.619 165.965 219.076 166.805 219.076C167.207 219.076 167.561 218.959 167.869 218.726C168.187 218.483 168.345 218.138 168.345 217.69V213.91H169.521V220H168.513L168.415 219.216C168.238 219.487 167.981 219.706 167.645 219.874C167.319 220.042 166.931 220.126 166.483 220.126ZM174.407 220.07C173.605 220.07 172.965 219.949 172.489 219.706C172.023 219.454 171.687 219.099 171.481 218.642C171.276 218.175 171.173 217.62 171.173 216.976C171.173 216.379 171.285 215.842 171.509 215.366C171.733 214.881 172.065 214.498 172.503 214.218C172.942 213.929 173.474 213.784 174.099 213.784C175.005 213.784 175.681 214.059 176.129 214.61C176.577 215.161 176.801 215.865 176.801 216.724C176.801 216.817 176.797 216.929 176.787 217.06C176.778 217.191 176.764 217.307 176.745 217.41H172.391C172.447 217.979 172.643 218.399 172.979 218.67C173.315 218.931 173.805 219.062 174.449 219.062H176.241V219.944C176.064 219.981 175.798 220.009 175.443 220.028C175.089 220.056 174.743 220.07 174.407 220.07ZM174.099 214.764C173.595 214.764 173.199 214.923 172.909 215.24C172.62 215.548 172.447 215.973 172.391 216.514H175.275C175.406 216.514 175.49 216.491 175.527 216.444C175.574 216.397 175.597 216.309 175.597 216.178C175.597 215.805 175.462 215.478 175.191 215.198C174.93 214.909 174.566 214.764 174.099 214.764ZM182.485 220.07C181.617 220.07 181.001 219.883 180.637 219.51C180.283 219.137 180.105 218.553 180.105 217.76V212.398H178.145V211.39H181.281V217.746C181.281 218.231 181.398 218.572 181.631 218.768C181.865 218.964 182.257 219.062 182.807 219.062H183.661V219.958C183.512 219.995 183.325 220.023 183.101 220.042C182.887 220.061 182.681 220.07 182.485 220.07Z" fill="#424D8F"></path>
                    </g>
                    <g id="Group 976618">
                        <circle id="Ellipse 41" cx="307.5" cy="216" r="22" fill="#434F92" fill-opacity="0.1" stroke="#828FD4"></circle>
                        <path id="icon" fill-rule="evenodd" clip-rule="evenodd" d="M305.286 211.155L308.763 207.678C308.972 207.468 309.239 207.325 309.53 207.267L315.717 206.03C316.766 205.82 317.692 206.745 317.482 207.795L316.244 213.982C316.186 214.273 316.044 214.539 315.834 214.749L312.357 218.226C313.688 220.107 313.511 222.728 311.827 224.412L309.127 227.112C308.595 227.645 307.731 227.645 307.199 227.112L304.981 224.894C304.395 224.309 304.395 223.359 304.981 222.773L306.041 221.712L301.799 217.47L300.738 218.531C300.153 219.117 299.203 219.117 298.617 218.531L296.399 216.313C295.867 215.78 295.867 214.917 296.399 214.385L299.099 211.685C300.784 210 303.405 209.824 305.286 211.155ZM303.835 212.606C302.769 212.035 301.413 212.2 300.513 213.099L298.264 215.349L299.678 216.763L301.434 215.006L301.445 214.995L303.835 212.606ZM308.495 222.087L306.749 223.834L308.163 225.248L310.413 222.998C311.312 222.099 311.477 220.743 310.906 219.677L308.517 222.066L308.495 222.087ZM311.699 214.641C310.917 215.422 309.651 215.422 308.87 214.641C308.089 213.86 308.089 212.594 308.87 211.813C309.651 211.032 310.917 211.032 311.699 211.813C312.48 212.594 312.48 213.86 311.699 214.641Z" fill="#424D8F"></path>
                    </g>
                </g>
                <g id="noise">
                    <g id="Frame 11231342">
                        <path id="Title_2" d="M135.557 302L138.217 293.698H139.757L142.417 302H141.143L140.513 299.83H137.433L136.803 302H135.557ZM138.805 295.112L137.741 298.794H140.205L139.141 295.112C139.113 295 139.057 294.944 138.973 294.944C138.889 294.944 138.833 295 138.805 295.112ZM142.865 302V295.91H143.775L143.845 296.456C144.097 296.008 144.485 295.784 145.007 295.784C145.623 295.784 146.039 296.055 146.253 296.596C146.543 296.055 147.005 295.784 147.639 295.784C148.162 295.784 148.545 295.947 148.787 296.274C149.03 296.591 149.151 297.095 149.151 297.786V302H148.073V297.8C148.073 297.436 148.022 297.175 147.919 297.016C147.817 296.857 147.644 296.778 147.401 296.778C147.14 296.778 146.93 296.881 146.771 297.086C146.622 297.282 146.547 297.567 146.547 297.94V302H145.469V297.8C145.469 297.436 145.418 297.175 145.315 297.016C145.213 296.857 145.04 296.778 144.797 296.778C144.536 296.778 144.326 296.881 144.167 297.086C144.018 297.282 143.943 297.567 143.943 297.94V302H142.865ZM153.197 302.126C152.796 302.126 152.432 302.051 152.105 301.902C151.779 301.743 151.513 301.515 151.307 301.216L151.209 302H150.201V293.39H151.377V296.652C151.797 296.073 152.437 295.784 153.295 295.784C153.865 295.784 154.345 295.924 154.737 296.204C155.129 296.475 155.428 296.848 155.633 297.324C155.839 297.791 155.941 298.323 155.941 298.92C155.941 299.527 155.834 300.073 155.619 300.558C155.414 301.043 155.106 301.426 154.695 301.706C154.294 301.986 153.795 302.126 153.197 302.126ZM152.987 301.076C153.566 301.076 154 300.885 154.289 300.502C154.588 300.11 154.737 299.592 154.737 298.948C154.737 298.313 154.593 297.805 154.303 297.422C154.014 297.03 153.58 296.834 153.001 296.834C152.731 296.834 152.469 296.885 152.217 296.988C151.965 297.091 151.76 297.249 151.601 297.464C151.452 297.669 151.377 297.935 151.377 298.262V299.69C151.377 300.147 151.541 300.493 151.867 300.726C152.194 300.959 152.567 301.076 152.987 301.076ZM159.875 294.692V293.306H161.331V294.692H159.875ZM160.141 302V296.918H157.453V295.91H161.317V302H160.141ZM167.407 302.07C166.605 302.07 165.965 301.949 165.489 301.706C165.023 301.454 164.687 301.099 164.481 300.642C164.276 300.175 164.173 299.62 164.173 298.976C164.173 298.379 164.285 297.842 164.509 297.366C164.733 296.881 165.065 296.498 165.503 296.218C165.942 295.929 166.474 295.784 167.099 295.784C168.005 295.784 168.681 296.059 169.129 296.61C169.577 297.161 169.801 297.865 169.801 298.724C169.801 298.817 169.797 298.929 169.787 299.06C169.778 299.191 169.764 299.307 169.745 299.41H165.391C165.447 299.979 165.643 300.399 165.979 300.67C166.315 300.931 166.805 301.062 167.449 301.062H169.241V301.944C169.064 301.981 168.798 302.009 168.443 302.028C168.089 302.056 167.743 302.07 167.407 302.07ZM167.099 296.764C166.595 296.764 166.199 296.923 165.909 297.24C165.62 297.548 165.447 297.973 165.391 298.514H168.275C168.406 298.514 168.49 298.491 168.527 298.444C168.574 298.397 168.597 298.309 168.597 298.178C168.597 297.805 168.462 297.478 168.191 297.198C167.93 296.909 167.566 296.764 167.099 296.764ZM171.425 302V295.91H172.433L172.531 296.708C172.709 296.437 172.961 296.218 173.287 296.05C173.623 295.873 174.025 295.784 174.491 295.784C175.154 295.784 175.672 295.975 176.045 296.358C176.428 296.741 176.619 297.296 176.619 298.024V302H175.443V298.206C175.443 297.291 175.019 296.834 174.169 296.834C173.768 296.834 173.404 296.955 173.077 297.198C172.76 297.431 172.601 297.772 172.601 298.22V302H171.425ZM182.149 302.07C181.515 302.07 181.02 301.995 180.665 301.846C180.311 301.687 180.059 301.449 179.909 301.132C179.769 300.815 179.699 300.409 179.699 299.914V296.904H178.117V295.952H179.195C179.391 295.952 179.527 295.919 179.601 295.854C179.685 295.779 179.737 295.625 179.755 295.392L179.881 293.866H180.875V295.91H183.549V296.904H180.875V299.886C180.875 300.325 180.992 300.633 181.225 300.81C181.459 300.978 181.832 301.062 182.345 301.062H183.549V301.944C183.381 301.981 183.171 302.009 182.919 302.028C182.677 302.056 182.42 302.07 182.149 302.07ZM150.425 322V315.91H151.433L151.531 316.708C151.709 316.437 151.961 316.218 152.287 316.05C152.623 315.873 153.025 315.784 153.491 315.784C154.154 315.784 154.672 315.975 155.045 316.358C155.428 316.741 155.619 317.296 155.619 318.024V322H154.443V318.206C154.443 317.291 154.019 316.834 153.169 316.834C152.768 316.834 152.404 316.955 152.077 317.198C151.76 317.431 151.601 317.772 151.601 318.22V322H150.425ZM159.987 322.126C159.026 322.126 158.293 321.832 157.789 321.244C157.295 320.656 157.047 319.895 157.047 318.962C157.047 318.337 157.155 317.786 157.369 317.31C157.593 316.834 157.92 316.461 158.349 316.19C158.788 315.919 159.329 315.784 159.973 315.784C160.944 315.784 161.677 316.078 162.171 316.666C162.675 317.254 162.927 318.019 162.927 318.962C162.927 319.578 162.815 320.124 162.591 320.6C162.377 321.076 162.05 321.449 161.611 321.72C161.182 321.991 160.641 322.126 159.987 322.126ZM159.987 321.076C160.566 321.076 161 320.889 161.289 320.516C161.579 320.133 161.723 319.611 161.723 318.948C161.723 318.285 161.574 317.767 161.275 317.394C160.986 317.021 160.552 316.834 159.973 316.834C159.404 316.834 158.975 317.025 158.685 317.408C158.396 317.781 158.251 318.299 158.251 318.962C158.251 319.625 158.396 320.143 158.685 320.516C158.984 320.889 159.418 321.076 159.987 321.076ZM166.875 314.692V313.306H168.331V314.692H166.875ZM167.141 322V316.918H164.453V315.91H168.317V322H167.141ZM173.735 322.07C173.231 322.07 172.807 322.056 172.461 322.028C172.125 322.009 171.841 321.981 171.607 321.944V321.076H173.763C174.305 321.076 174.697 321.011 174.939 320.88C175.182 320.74 175.303 320.53 175.303 320.25C175.303 320.054 175.243 319.9 175.121 319.788C175.009 319.667 174.771 319.583 174.407 319.536L173.511 319.41C172.811 319.307 172.298 319.13 171.971 318.878C171.645 318.626 171.481 318.211 171.481 317.632C171.481 317.063 171.691 316.624 172.111 316.316C172.531 315.999 173.208 315.84 174.141 315.84C174.58 315.84 174.963 315.854 175.289 315.882C175.616 315.901 175.891 315.929 176.115 315.966V316.834H174.099C173.586 316.834 173.217 316.899 172.993 317.03C172.769 317.151 172.657 317.352 172.657 317.632C172.657 317.837 172.723 318.001 172.853 318.122C172.984 318.243 173.25 318.327 173.651 318.374L174.547 318.486C175.182 318.561 175.663 318.729 175.989 318.99C176.316 319.251 176.479 319.667 176.479 320.236C176.479 320.805 176.269 321.253 175.849 321.58C175.439 321.907 174.734 322.07 173.735 322.07ZM181.407 322.07C180.605 322.07 179.965 321.949 179.489 321.706C179.023 321.454 178.687 321.099 178.481 320.642C178.276 320.175 178.173 319.62 178.173 318.976C178.173 318.379 178.285 317.842 178.509 317.366C178.733 316.881 179.065 316.498 179.503 316.218C179.942 315.929 180.474 315.784 181.099 315.784C182.005 315.784 182.681 316.059 183.129 316.61C183.577 317.161 183.801 317.865 183.801 318.724C183.801 318.817 183.797 318.929 183.787 319.06C183.778 319.191 183.764 319.307 183.745 319.41H179.391C179.447 319.979 179.643 320.399 179.979 320.67C180.315 320.931 180.805 321.062 181.449 321.062H183.241V321.944C183.064 321.981 182.798 322.009 182.443 322.028C182.089 322.056 181.743 322.07 181.407 322.07ZM181.099 316.764C180.595 316.764 180.199 316.923 179.909 317.24C179.62 317.548 179.447 317.973 179.391 318.514H182.275C182.406 318.514 182.49 318.491 182.527 318.444C182.574 318.397 182.597 318.309 182.597 318.178C182.597 317.805 182.462 317.478 182.191 317.198C181.93 316.909 181.566 316.764 181.099 316.764Z" fill="#424D8F"></path>
                    </g>
                    <g id="Group 976619">
                        <circle id="Ellipse 42" cx="307.5" cy="308" r="22" fill="#434F92" fill-opacity="0.1" stroke="#828FD4"></circle>
                        <g id="Headset">
                            <path id="icon_2" d="M307 301.5C303.829 301.5 301.15 303.609 300.29 306.5H302.52C303.348 306.5 304.02 307.172 304.02 308V312C304.02 312.828 303.348 313.5 302.52 313.5H299.52C298.895 313.5 298.359 313.117 298.134 312.574C298.049 312.427 298 312.256 298 312.074V308.5C298 303.529 302.029 299.5 307 299.5C311.687 299.5 315.538 303.083 315.961 307.66C315.987 307.769 316 307.883 316 308V308.476L316 308.5V314.5C316 316.157 314.657 317.5 313 317.5H308C307.448 317.5 307 317.052 307 316.5C307 315.948 307.448 315.5 308 315.5H313C313.552 315.5 314 315.052 314 314.5V313.5H311.5C310.672 313.5 310 312.828 310 312V308C310 307.172 310.672 306.5 311.5 306.5H313.71C312.85 303.609 310.171 301.5 307 301.5Z" fill="#424D8F"></path>
                        </g>
                    </g>
                </g>
                <g id="systems">
                    <g id="Frame 11231343">
                        <path id="Title_3" d="M94.4533 394V385.698H99.6613V386.776H95.6853V389.184H99.3393V390.248H95.6853V392.922H99.7733V394H94.4533ZM101.425 394V387.91H102.433L102.531 388.708C102.709 388.437 102.961 388.218 103.287 388.05C103.623 387.873 104.025 387.784 104.491 387.784C105.154 387.784 105.672 387.975 106.045 388.358C106.428 388.741 106.619 389.296 106.619 390.024V394H105.443V390.206C105.443 389.291 105.019 388.834 104.169 388.834C103.768 388.834 103.404 388.955 103.077 389.198C102.76 389.431 102.601 389.772 102.601 390.22V394H101.425ZM112.149 394.07C111.515 394.07 111.02 393.995 110.665 393.846C110.311 393.687 110.059 393.449 109.909 393.132C109.769 392.815 109.699 392.409 109.699 391.914V388.904H108.117V387.952H109.195C109.391 387.952 109.527 387.919 109.601 387.854C109.685 387.779 109.737 387.625 109.755 387.392L109.881 385.866H110.875V387.91H113.549V388.904H110.875V391.886C110.875 392.325 110.992 392.633 111.225 392.81C111.459 392.978 111.832 393.062 112.345 393.062H113.549V393.944C113.381 393.981 113.171 394.009 112.919 394.028C112.677 394.056 112.42 394.07 112.149 394.07ZM118.407 394.07C117.605 394.07 116.965 393.949 116.489 393.706C116.023 393.454 115.687 393.099 115.481 392.642C115.276 392.175 115.173 391.62 115.173 390.976C115.173 390.379 115.285 389.842 115.509 389.366C115.733 388.881 116.065 388.498 116.503 388.218C116.942 387.929 117.474 387.784 118.099 387.784C119.005 387.784 119.681 388.059 120.129 388.61C120.577 389.161 120.801 389.865 120.801 390.724C120.801 390.817 120.797 390.929 120.787 391.06C120.778 391.191 120.764 391.307 120.745 391.41H116.391C116.447 391.979 116.643 392.399 116.979 392.67C117.315 392.931 117.805 393.062 118.449 393.062H120.241V393.944C120.064 393.981 119.798 394.009 119.443 394.028C119.089 394.056 118.743 394.07 118.407 394.07ZM118.099 388.764C117.595 388.764 117.199 388.923 116.909 389.24C116.62 389.548 116.447 389.973 116.391 390.514H119.275C119.406 390.514 119.49 390.491 119.527 390.444C119.574 390.397 119.597 390.309 119.597 390.178C119.597 389.805 119.462 389.478 119.191 389.198C118.93 388.909 118.566 388.764 118.099 388.764ZM123.363 394V388.918H122.103V387.91H124.371L124.511 389.072C124.735 388.727 125.062 388.437 125.491 388.204C125.921 387.961 126.448 387.84 127.073 387.84C127.185 387.84 127.293 387.845 127.395 387.854C127.498 387.863 127.587 387.877 127.661 387.896V388.946H127.115C126.322 388.946 125.692 389.133 125.225 389.506C124.768 389.879 124.539 390.453 124.539 391.228V394H123.363ZM133.149 394.07C132.515 394.07 132.02 393.995 131.665 393.846C131.311 393.687 131.059 393.449 130.909 393.132C130.769 392.815 130.699 392.409 130.699 391.914V388.904H129.117V387.952H130.195C130.391 387.952 130.527 387.919 130.601 387.854C130.685 387.779 130.737 387.625 130.755 387.392L130.881 385.866H131.875V387.91H134.549V388.904H131.875V391.886C131.875 392.325 131.992 392.633 132.225 392.81C132.459 392.978 132.832 393.062 133.345 393.062H134.549V393.944C134.381 393.981 134.171 394.009 133.919 394.028C133.677 394.056 133.42 394.07 133.149 394.07ZM138.343 394.126C137.662 394.126 137.135 393.967 136.761 393.65C136.397 393.333 136.215 392.889 136.215 392.32C136.215 391.891 136.304 391.555 136.481 391.312C136.668 391.06 136.911 390.869 137.209 390.738C137.508 390.607 137.839 390.519 138.203 390.472L139.505 390.29C139.748 390.253 139.93 390.187 140.051 390.094C140.182 390.001 140.247 389.837 140.247 389.604C140.247 389.343 140.145 389.147 139.939 389.016C139.734 388.885 139.347 388.82 138.777 388.82H136.943V387.966C137.167 387.938 137.443 387.91 137.769 387.882C138.105 387.854 138.432 387.84 138.749 387.84C139.636 387.84 140.294 387.985 140.723 388.274C141.153 388.554 141.367 389.077 141.367 389.842V394H140.387L140.303 393.272C140.135 393.505 139.893 393.706 139.575 393.874C139.258 394.042 138.847 394.126 138.343 394.126ZM138.553 393.174C138.843 393.174 139.113 393.132 139.365 393.048C139.617 392.964 139.823 392.838 139.981 392.67C140.14 392.493 140.219 392.273 140.219 392.012V391.074L138.441 391.326C138.096 391.373 137.83 391.461 137.643 391.592C137.457 391.723 137.363 391.937 137.363 392.236C137.363 392.553 137.471 392.791 137.685 392.95C137.909 393.099 138.199 393.174 138.553 393.174ZM145.875 386.692V385.306H147.331V386.692H145.875ZM146.141 394V388.918H143.453V387.91H147.317V394H146.141ZM150.425 394V387.91H151.433L151.531 388.708C151.709 388.437 151.961 388.218 152.287 388.05C152.623 387.873 153.025 387.784 153.491 387.784C154.154 387.784 154.672 387.975 155.045 388.358C155.428 388.741 155.619 389.296 155.619 390.024V394H154.443V390.206C154.443 389.291 154.019 388.834 153.169 388.834C152.768 388.834 152.404 388.955 152.077 389.198C151.76 389.431 151.601 389.772 151.601 390.22V394H150.425ZM156.865 394V387.91H157.775L157.845 388.456C158.097 388.008 158.485 387.784 159.007 387.784C159.623 387.784 160.039 388.055 160.253 388.596C160.543 388.055 161.005 387.784 161.639 387.784C162.162 387.784 162.545 387.947 162.787 388.274C163.03 388.591 163.151 389.095 163.151 389.786V394H162.073V389.8C162.073 389.436 162.022 389.175 161.919 389.016C161.817 388.857 161.644 388.778 161.401 388.778C161.14 388.778 160.93 388.881 160.771 389.086C160.622 389.282 160.547 389.567 160.547 389.94V394H159.469V389.8C159.469 389.436 159.418 389.175 159.315 389.016C159.213 388.857 159.04 388.778 158.797 388.778C158.536 388.778 158.326 388.881 158.167 389.086C158.018 389.282 157.943 389.567 157.943 389.94V394H156.865ZM167.407 394.07C166.605 394.07 165.965 393.949 165.489 393.706C165.023 393.454 164.687 393.099 164.481 392.642C164.276 392.175 164.173 391.62 164.173 390.976C164.173 390.379 164.285 389.842 164.509 389.366C164.733 388.881 165.065 388.498 165.503 388.218C165.942 387.929 166.474 387.784 167.099 387.784C168.005 387.784 168.681 388.059 169.129 388.61C169.577 389.161 169.801 389.865 169.801 390.724C169.801 390.817 169.797 390.929 169.787 391.06C169.778 391.191 169.764 391.307 169.745 391.41H165.391C165.447 391.979 165.643 392.399 165.979 392.67C166.315 392.931 166.805 393.062 167.449 393.062H169.241V393.944C169.064 393.981 168.798 394.009 168.443 394.028C168.089 394.056 167.743 394.07 167.407 394.07ZM167.099 388.764C166.595 388.764 166.199 388.923 165.909 389.24C165.62 389.548 165.447 389.973 165.391 390.514H168.275C168.406 390.514 168.49 390.491 168.527 390.444C168.574 390.397 168.597 390.309 168.597 390.178C168.597 389.805 168.462 389.478 168.191 389.198C167.93 388.909 167.566 388.764 167.099 388.764ZM171.425 394V387.91H172.433L172.531 388.708C172.709 388.437 172.961 388.218 173.287 388.05C173.623 387.873 174.025 387.784 174.491 387.784C175.154 387.784 175.672 387.975 176.045 388.358C176.428 388.741 176.619 389.296 176.619 390.024V394H175.443V390.206C175.443 389.291 175.019 388.834 174.169 388.834C173.768 388.834 173.404 388.955 173.077 389.198C172.76 389.431 172.601 389.772 172.601 390.22V394H171.425ZM182.149 394.07C181.515 394.07 181.02 393.995 180.665 393.846C180.311 393.687 180.059 393.449 179.909 393.132C179.769 392.815 179.699 392.409 179.699 391.914V388.904H178.117V387.952H179.195C179.391 387.952 179.527 387.919 179.601 387.854C179.685 387.779 179.737 387.625 179.755 387.392L179.881 385.866H180.875V387.91H183.549V388.904H180.875V391.886C180.875 392.325 180.992 392.633 181.225 392.81C181.459 392.978 181.832 393.062 182.345 393.062H183.549V393.944C183.381 393.981 183.171 394.009 182.919 394.028C182.677 394.056 182.42 394.07 182.149 394.07ZM138.735 414.07C138.231 414.07 137.807 414.056 137.461 414.028C137.125 414.009 136.841 413.981 136.607 413.944V413.076H138.763C139.305 413.076 139.697 413.011 139.939 412.88C140.182 412.74 140.303 412.53 140.303 412.25C140.303 412.054 140.243 411.9 140.121 411.788C140.009 411.667 139.771 411.583 139.407 411.536L138.511 411.41C137.811 411.307 137.298 411.13 136.971 410.878C136.645 410.626 136.481 410.211 136.481 409.632C136.481 409.063 136.691 408.624 137.111 408.316C137.531 407.999 138.208 407.84 139.141 407.84C139.58 407.84 139.963 407.854 140.289 407.882C140.616 407.901 140.891 407.929 141.115 407.966V408.834H139.099C138.586 408.834 138.217 408.899 137.993 409.03C137.769 409.151 137.657 409.352 137.657 409.632C137.657 409.837 137.723 410.001 137.853 410.122C137.984 410.243 138.25 410.327 138.651 410.374L139.547 410.486C140.182 410.561 140.663 410.729 140.989 410.99C141.316 411.251 141.479 411.667 141.479 412.236C141.479 412.805 141.269 413.253 140.849 413.58C140.439 413.907 139.734 414.07 138.735 414.07ZM144.349 416.352C144.209 416.352 144.055 416.338 143.887 416.31C143.729 416.291 143.612 416.263 143.537 416.226V415.33H143.999C144.279 415.33 144.503 415.302 144.671 415.246C144.849 415.199 144.993 415.101 145.105 414.952C145.227 414.812 145.339 414.597 145.441 414.308L145.553 413.986H145.231L142.921 407.91H144.209L145.805 412.544C145.861 412.675 145.927 412.74 146.001 412.74C146.085 412.74 146.155 412.675 146.211 412.544L147.807 407.91H149.053L146.519 414.602C146.351 415.05 146.169 415.4 145.973 415.652C145.777 415.913 145.549 416.095 145.287 416.198C145.035 416.301 144.723 416.352 144.349 416.352ZM152.735 414.07C152.231 414.07 151.807 414.056 151.461 414.028C151.125 414.009 150.841 413.981 150.607 413.944V413.076H152.763C153.305 413.076 153.697 413.011 153.939 412.88C154.182 412.74 154.303 412.53 154.303 412.25C154.303 412.054 154.243 411.9 154.121 411.788C154.009 411.667 153.771 411.583 153.407 411.536L152.511 411.41C151.811 411.307 151.298 411.13 150.971 410.878C150.645 410.626 150.481 410.211 150.481 409.632C150.481 409.063 150.691 408.624 151.111 408.316C151.531 407.999 152.208 407.84 153.141 407.84C153.58 407.84 153.963 407.854 154.289 407.882C154.616 407.901 154.891 407.929 155.115 407.966V408.834H153.099C152.586 408.834 152.217 408.899 151.993 409.03C151.769 409.151 151.657 409.352 151.657 409.632C151.657 409.837 151.723 410.001 151.853 410.122C151.984 410.243 152.25 410.327 152.651 410.374L153.547 410.486C154.182 410.561 154.663 410.729 154.989 410.99C155.316 411.251 155.479 411.667 155.479 412.236C155.479 412.805 155.269 413.253 154.849 413.58C154.439 413.907 153.734 414.07 152.735 414.07ZM161.149 414.07C160.515 414.07 160.02 413.995 159.665 413.846C159.311 413.687 159.059 413.449 158.909 413.132C158.769 412.815 158.699 412.409 158.699 411.914V408.904H157.117V407.952H158.195C158.391 407.952 158.527 407.919 158.601 407.854C158.685 407.779 158.737 407.625 158.755 407.392L158.881 405.866H159.875V407.91H162.549V408.904H159.875V411.886C159.875 412.325 159.992 412.633 160.225 412.81C160.459 412.978 160.832 413.062 161.345 413.062H162.549V413.944C162.381 413.981 162.171 414.009 161.919 414.028C161.677 414.056 161.42 414.07 161.149 414.07ZM167.407 414.07C166.605 414.07 165.965 413.949 165.489 413.706C165.023 413.454 164.687 413.099 164.481 412.642C164.276 412.175 164.173 411.62 164.173 410.976C164.173 410.379 164.285 409.842 164.509 409.366C164.733 408.881 165.065 408.498 165.503 408.218C165.942 407.929 166.474 407.784 167.099 407.784C168.005 407.784 168.681 408.059 169.129 408.61C169.577 409.161 169.801 409.865 169.801 410.724C169.801 410.817 169.797 410.929 169.787 411.06C169.778 411.191 169.764 411.307 169.745 411.41H165.391C165.447 411.979 165.643 412.399 165.979 412.67C166.315 412.931 166.805 413.062 167.449 413.062H169.241V413.944C169.064 413.981 168.798 414.009 168.443 414.028C168.089 414.056 167.743 414.07 167.407 414.07ZM167.099 408.764C166.595 408.764 166.199 408.923 165.909 409.24C165.62 409.548 165.447 409.973 165.391 410.514H168.275C168.406 410.514 168.49 410.491 168.527 410.444C168.574 410.397 168.597 410.309 168.597 410.178C168.597 409.805 168.462 409.478 168.191 409.198C167.93 408.909 167.566 408.764 167.099 408.764ZM170.865 414V407.91H171.775L171.845 408.456C172.097 408.008 172.485 407.784 173.007 407.784C173.623 407.784 174.039 408.055 174.253 408.596C174.543 408.055 175.005 407.784 175.639 407.784C176.162 407.784 176.545 407.947 176.787 408.274C177.03 408.591 177.151 409.095 177.151 409.786V414H176.073V409.8C176.073 409.436 176.022 409.175 175.919 409.016C175.817 408.857 175.644 408.778 175.401 408.778C175.14 408.778 174.93 408.881 174.771 409.086C174.622 409.282 174.547 409.567 174.547 409.94V414H173.469V409.8C173.469 409.436 173.418 409.175 173.315 409.016C173.213 408.857 173.04 408.778 172.797 408.778C172.536 408.778 172.326 408.881 172.167 409.086C172.018 409.282 171.943 409.567 171.943 409.94V414H170.865ZM180.735 414.07C180.231 414.07 179.807 414.056 179.461 414.028C179.125 414.009 178.841 413.981 178.607 413.944V413.076H180.763C181.305 413.076 181.697 413.011 181.939 412.88C182.182 412.74 182.303 412.53 182.303 412.25C182.303 412.054 182.243 411.9 182.121 411.788C182.009 411.667 181.771 411.583 181.407 411.536L180.511 411.41C179.811 411.307 179.298 411.13 178.971 410.878C178.645 410.626 178.481 410.211 178.481 409.632C178.481 409.063 178.691 408.624 179.111 408.316C179.531 407.999 180.208 407.84 181.141 407.84C181.58 407.84 181.963 407.854 182.289 407.882C182.616 407.901 182.891 407.929 183.115 407.966V408.834H181.099C180.586 408.834 180.217 408.899 179.993 409.03C179.769 409.151 179.657 409.352 179.657 409.632C179.657 409.837 179.723 410.001 179.853 410.122C179.984 410.243 180.25 410.327 180.651 410.374L181.547 410.486C182.182 410.561 182.663 410.729 182.989 410.99C183.316 411.251 183.479 411.667 183.479 412.236C183.479 412.805 183.269 413.253 182.849 413.58C182.439 413.907 181.734 414.07 180.735 414.07Z" fill="#424D8F"></path>
                    </g>
                    <g id="Group 976624">
                        <g id="Group 976620">
                            <circle id="Ellipse 43" cx="307.5" cy="400" r="22" fill="#434F92" fill-opacity="0.1" stroke="#828FD4"></circle>
                        </g>
                        <g id="Face Smile">
                            <path id="icon_3" fill-rule="evenodd" clip-rule="evenodd" d="M297 399.5C297 393.977 301.477 389.5 307 389.5C312.523 389.5 317 393.977 317 399.5C317 405.023 312.523 409.5 307 409.5C301.477 409.5 297 405.023 297 399.5ZM309.5 398.5C310.328 398.5 311 397.828 311 397C311 396.172 310.328 395.5 309.5 395.5C308.672 395.5 308 396.172 308 397C308 397.828 308.672 398.5 309.5 398.5ZM303.331 400.614C303.876 401.918 305.074 403 307 403C308.926 403 310.124 401.918 310.669 400.614C310.883 400.105 311.468 399.864 311.978 400.077C312.487 400.291 312.728 400.876 312.515 401.386C311.7 403.334 309.836 405 307 405C304.164 405 302.3 403.334 301.485 401.386C301.272 400.876 301.513 400.291 302.022 400.077C302.532 399.864 303.117 400.105 303.331 400.614ZM306 397C306 397.828 305.328 398.5 304.5 398.5C303.672 398.5 303 397.828 303 397C303 396.172 303.672 395.5 304.5 395.5C305.328 395.5 306 396.172 306 397Z" fill="#424D8F"></path>
                        </g>
                    </g>
                </g>
                <g id="support">
                    <g id="Frame 11231344">
                        <path id="Title_4" d="M101.691 496V487.698H102.937V494.922H106.759V496H101.691ZM110.875 488.692V487.306H112.331V488.692H110.875ZM111.141 496V490.918H108.453V489.91H112.317V496H111.141ZM116.769 496V490.904H115.187V489.91H116.769V489.672C116.769 488.916 116.951 488.333 117.315 487.922C117.689 487.511 118.356 487.306 119.317 487.306C119.532 487.306 119.751 487.32 119.975 487.348C120.199 487.367 120.4 487.395 120.577 487.432V488.3H119.345C118.86 488.3 118.505 488.403 118.281 488.608C118.057 488.804 117.945 489.135 117.945 489.602V489.91H120.451V490.904H117.945V496H116.769ZM125.407 496.07C124.605 496.07 123.965 495.949 123.489 495.706C123.023 495.454 122.687 495.099 122.481 494.642C122.276 494.175 122.173 493.62 122.173 492.976C122.173 492.379 122.285 491.842 122.509 491.366C122.733 490.881 123.065 490.498 123.503 490.218C123.942 489.929 124.474 489.784 125.099 489.784C126.005 489.784 126.681 490.059 127.129 490.61C127.577 491.161 127.801 491.865 127.801 492.724C127.801 492.817 127.797 492.929 127.787 493.06C127.778 493.191 127.764 493.307 127.745 493.41H123.391C123.447 493.979 123.643 494.399 123.979 494.67C124.315 494.931 124.805 495.062 125.449 495.062H127.241V495.944C127.064 495.981 126.798 496.009 126.443 496.028C126.089 496.056 125.743 496.07 125.407 496.07ZM125.099 490.764C124.595 490.764 124.199 490.923 123.909 491.24C123.62 491.548 123.447 491.973 123.391 492.514H126.275C126.406 492.514 126.49 492.491 126.527 492.444C126.574 492.397 126.597 492.309 126.597 492.178C126.597 491.805 126.462 491.478 126.191 491.198C125.93 490.909 125.566 490.764 125.099 490.764ZM138.735 496.07C138.231 496.07 137.807 496.056 137.461 496.028C137.125 496.009 136.841 495.981 136.607 495.944V495.076H138.763C139.305 495.076 139.697 495.011 139.939 494.88C140.182 494.74 140.303 494.53 140.303 494.25C140.303 494.054 140.243 493.9 140.121 493.788C140.009 493.667 139.771 493.583 139.407 493.536L138.511 493.41C137.811 493.307 137.298 493.13 136.971 492.878C136.645 492.626 136.481 492.211 136.481 491.632C136.481 491.063 136.691 490.624 137.111 490.316C137.531 489.999 138.208 489.84 139.141 489.84C139.58 489.84 139.963 489.854 140.289 489.882C140.616 489.901 140.891 489.929 141.115 489.966V490.834H139.099C138.586 490.834 138.217 490.899 137.993 491.03C137.769 491.151 137.657 491.352 137.657 491.632C137.657 491.837 137.723 492.001 137.853 492.122C137.984 492.243 138.25 492.327 138.651 492.374L139.547 492.486C140.182 492.561 140.663 492.729 140.989 492.99C141.316 493.251 141.479 493.667 141.479 494.236C141.479 494.805 141.269 495.253 140.849 495.58C140.439 495.907 139.734 496.07 138.735 496.07ZM145.483 496.126C144.821 496.126 144.303 495.935 143.929 495.552C143.556 495.169 143.369 494.609 143.369 493.872V489.91H144.545V493.704C144.545 494.619 144.965 495.076 145.805 495.076C146.207 495.076 146.561 494.959 146.869 494.726C147.187 494.483 147.345 494.138 147.345 493.69V489.91H148.521V496H147.513L147.415 495.216C147.238 495.487 146.981 495.706 146.645 495.874C146.319 496.042 145.931 496.126 145.483 496.126ZM150.201 498.282V489.91H151.209L151.307 490.736C151.513 490.428 151.788 490.195 152.133 490.036C152.479 489.868 152.871 489.784 153.309 489.784C153.869 489.784 154.345 489.924 154.737 490.204C155.129 490.475 155.428 490.848 155.633 491.324C155.839 491.791 155.941 492.323 155.941 492.92C155.941 493.527 155.834 494.073 155.619 494.558C155.414 495.043 155.111 495.426 154.709 495.706C154.308 495.986 153.809 496.126 153.211 496.126C152.838 496.126 152.493 496.061 152.175 495.93C151.858 495.79 151.592 495.585 151.377 495.314V498.282H150.201ZM152.987 495.076C153.566 495.076 154 494.885 154.289 494.502C154.588 494.11 154.737 493.592 154.737 492.948C154.737 492.313 154.593 491.805 154.303 491.422C154.014 491.03 153.58 490.834 153.001 490.834C152.731 490.834 152.469 490.885 152.217 490.988C151.965 491.091 151.76 491.249 151.601 491.464C151.452 491.669 151.377 491.931 151.377 492.248V493.69C151.377 494.147 151.541 494.493 151.867 494.726C152.194 494.959 152.567 495.076 152.987 495.076ZM157.201 498.282V489.91H158.209L158.307 490.736C158.513 490.428 158.788 490.195 159.133 490.036C159.479 489.868 159.871 489.784 160.309 489.784C160.869 489.784 161.345 489.924 161.737 490.204C162.129 490.475 162.428 490.848 162.633 491.324C162.839 491.791 162.941 492.323 162.941 492.92C162.941 493.527 162.834 494.073 162.619 494.558C162.414 495.043 162.111 495.426 161.709 495.706C161.308 495.986 160.809 496.126 160.211 496.126C159.838 496.126 159.493 496.061 159.175 495.93C158.858 495.79 158.592 495.585 158.377 495.314V498.282H157.201ZM159.987 495.076C160.566 495.076 161 494.885 161.289 494.502C161.588 494.11 161.737 493.592 161.737 492.948C161.737 492.313 161.593 491.805 161.303 491.422C161.014 491.03 160.58 490.834 160.001 490.834C159.731 490.834 159.469 490.885 159.217 490.988C158.965 491.091 158.76 491.249 158.601 491.464C158.452 491.669 158.377 491.931 158.377 492.248V493.69C158.377 494.147 158.541 494.493 158.867 494.726C159.194 494.959 159.567 495.076 159.987 495.076ZM166.987 496.126C166.026 496.126 165.293 495.832 164.789 495.244C164.295 494.656 164.047 493.895 164.047 492.962C164.047 492.337 164.155 491.786 164.369 491.31C164.593 490.834 164.92 490.461 165.349 490.19C165.788 489.919 166.329 489.784 166.973 489.784C167.944 489.784 168.677 490.078 169.171 490.666C169.675 491.254 169.927 492.019 169.927 492.962C169.927 493.578 169.815 494.124 169.591 494.6C169.377 495.076 169.05 495.449 168.611 495.72C168.182 495.991 167.641 496.126 166.987 496.126ZM166.987 495.076C167.566 495.076 168 494.889 168.289 494.516C168.579 494.133 168.723 493.611 168.723 492.948C168.723 492.285 168.574 491.767 168.275 491.394C167.986 491.021 167.552 490.834 166.973 490.834C166.404 490.834 165.975 491.025 165.685 491.408C165.396 491.781 165.251 492.299 165.251 492.962C165.251 493.625 165.396 494.143 165.685 494.516C165.984 494.889 166.418 495.076 166.987 495.076ZM172.363 496V490.918H171.103V489.91H173.371L173.511 491.072C173.735 490.727 174.062 490.437 174.491 490.204C174.921 489.961 175.448 489.84 176.073 489.84C176.185 489.84 176.293 489.845 176.395 489.854C176.498 489.863 176.587 489.877 176.661 489.896V490.946H176.115C175.322 490.946 174.692 491.133 174.225 491.506C173.768 491.879 173.539 492.453 173.539 493.228V496H172.363ZM182.149 496.07C181.515 496.07 181.02 495.995 180.665 495.846C180.311 495.687 180.059 495.449 179.909 495.132C179.769 494.815 179.699 494.409 179.699 493.914V490.904H178.117V489.952H179.195C179.391 489.952 179.527 489.919 179.601 489.854C179.685 489.779 179.737 489.625 179.755 489.392L179.881 487.866H180.875V489.91H183.549V490.904H180.875V493.886C180.875 494.325 180.992 494.633 181.225 494.81C181.459 494.978 181.832 495.062 182.345 495.062H183.549V495.944C183.381 495.981 183.171 496.009 182.919 496.028C182.677 496.056 182.42 496.07 182.149 496.07Z" fill="#424D8F"></path>
                    </g>
                    <g id="Group 976622">
                        <g id="Group 976621">
                            <circle id="Ellipse 44" cx="307.5" cy="492" r="22" fill="#434F92" fill-opacity="0.1" stroke="#828FD4"></circle>
                        </g>
                        <path id="icon_4" fill-rule="evenodd" clip-rule="evenodd" d="M305.04 484.508C305.275 483.085 306.511 482 308 482C309.482 482 310.713 483.075 310.956 484.487C314.489 485.703 317.027 489.055 317.027 493C317.027 493.566 316.975 494.121 316.875 494.658C317.561 495.208 318 496.053 318 497C318 498.657 316.657 500 315 500C314.62 500 314.257 499.929 313.923 499.801C312.343 501.171 310.282 502 308.027 502C305.764 502 303.697 501.165 302.115 499.786C301.77 499.924 301.394 500 301 500C299.343 500 298 498.657 298 497C298 496.031 298.46 495.169 299.173 494.62C299.077 494.095 299.027 493.553 299.027 493C299.027 489.077 301.538 485.739 305.04 484.508ZM305.406 486.507C305.925 487.4 306.893 488 308 488C309.115 488 310.087 487.392 310.605 486.49C313.195 487.516 315.027 490.044 315.027 493C315.027 493.34 315.003 493.674 314.956 494C313.32 494.024 312 495.358 312 497C312 497.537 312.141 498.04 312.388 498.476C311.192 499.43 309.676 500 308.027 500C306.361 500 304.831 499.418 303.629 498.446C303.866 498.017 304 497.524 304 497C304 495.376 302.71 494.054 301.098 494.002C301.052 493.674 301.027 493.34 301.027 493C301.027 490.061 302.839 487.545 305.406 486.507Z" fill="#424D8F"></path>
                    </g>
                </g>
                <g id="provisions">
                    <g id="Frame 11231345">
                        <path id="Title_5" d="M115.411 588V579.698H118.071C119.079 579.698 119.826 579.936 120.311 580.412C120.797 580.879 121.039 581.513 121.039 582.316C121.039 583.109 120.797 583.749 120.311 584.234C119.826 584.71 119.079 584.948 118.071 584.948H116.643V588H115.411ZM118.001 580.72H116.643V583.926H118.001C118.58 583.926 119.023 583.795 119.331 583.534C119.639 583.273 119.793 582.862 119.793 582.302C119.793 581.77 119.639 581.373 119.331 581.112C119.023 580.851 118.58 580.72 118.001 580.72ZM123.363 588V582.918H122.103V581.91H124.371L124.511 583.072C124.735 582.727 125.062 582.437 125.491 582.204C125.921 581.961 126.448 581.84 127.073 581.84C127.185 581.84 127.293 581.845 127.395 581.854C127.498 581.863 127.587 581.877 127.661 581.896V582.946H127.115C126.322 582.946 125.692 583.133 125.225 583.506C124.768 583.879 124.539 584.453 124.539 585.228V588H123.363ZM131.987 588.126C131.026 588.126 130.293 587.832 129.789 587.244C129.295 586.656 129.047 585.895 129.047 584.962C129.047 584.337 129.155 583.786 129.369 583.31C129.593 582.834 129.92 582.461 130.349 582.19C130.788 581.919 131.329 581.784 131.973 581.784C132.944 581.784 133.677 582.078 134.171 582.666C134.675 583.254 134.927 584.019 134.927 584.962C134.927 585.578 134.815 586.124 134.591 586.6C134.377 587.076 134.05 587.449 133.611 587.72C133.182 587.991 132.641 588.126 131.987 588.126ZM131.987 587.076C132.566 587.076 133 586.889 133.289 586.516C133.579 586.133 133.723 585.611 133.723 584.948C133.723 584.285 133.574 583.767 133.275 583.394C132.986 583.021 132.552 582.834 131.973 582.834C131.404 582.834 130.975 583.025 130.685 583.408C130.396 583.781 130.251 584.299 130.251 584.962C130.251 585.625 130.396 586.143 130.685 586.516C130.984 586.889 131.418 587.076 131.987 587.076ZM138.231 588L135.921 581.91H137.223L138.819 586.544C138.875 586.675 138.945 586.74 139.029 586.74C139.104 586.74 139.169 586.675 139.225 586.544L140.821 581.91H142.067L139.757 588H138.231ZM145.875 580.692V579.306H147.331V580.692H145.875ZM146.141 588V582.918H143.453V581.91H147.317V588H146.141ZM152.735 588.07C152.231 588.07 151.807 588.056 151.461 588.028C151.125 588.009 150.841 587.981 150.607 587.944V587.076H152.763C153.305 587.076 153.697 587.011 153.939 586.88C154.182 586.74 154.303 586.53 154.303 586.25C154.303 586.054 154.243 585.9 154.121 585.788C154.009 585.667 153.771 585.583 153.407 585.536L152.511 585.41C151.811 585.307 151.298 585.13 150.971 584.878C150.645 584.626 150.481 584.211 150.481 583.632C150.481 583.063 150.691 582.624 151.111 582.316C151.531 581.999 152.208 581.84 153.141 581.84C153.58 581.84 153.963 581.854 154.289 581.882C154.616 581.901 154.891 581.929 155.115 581.966V582.834H153.099C152.586 582.834 152.217 582.899 151.993 583.03C151.769 583.151 151.657 583.352 151.657 583.632C151.657 583.837 151.723 584.001 151.853 584.122C151.984 584.243 152.25 584.327 152.651 584.374L153.547 584.486C154.182 584.561 154.663 584.729 154.989 584.99C155.316 585.251 155.479 585.667 155.479 586.236C155.479 586.805 155.269 587.253 154.849 587.58C154.439 587.907 153.734 588.07 152.735 588.07ZM159.875 580.692V579.306H161.331V580.692H159.875ZM160.141 588V582.918H157.453V581.91H161.317V588H160.141ZM166.987 588.126C166.026 588.126 165.293 587.832 164.789 587.244C164.295 586.656 164.047 585.895 164.047 584.962C164.047 584.337 164.155 583.786 164.369 583.31C164.593 582.834 164.92 582.461 165.349 582.19C165.788 581.919 166.329 581.784 166.973 581.784C167.944 581.784 168.677 582.078 169.171 582.666C169.675 583.254 169.927 584.019 169.927 584.962C169.927 585.578 169.815 586.124 169.591 586.6C169.377 587.076 169.05 587.449 168.611 587.72C168.182 587.991 167.641 588.126 166.987 588.126ZM166.987 587.076C167.566 587.076 168 586.889 168.289 586.516C168.579 586.133 168.723 585.611 168.723 584.948C168.723 584.285 168.574 583.767 168.275 583.394C167.986 583.021 167.552 582.834 166.973 582.834C166.404 582.834 165.975 583.025 165.685 583.408C165.396 583.781 165.251 584.299 165.251 584.962C165.251 585.625 165.396 586.143 165.685 586.516C165.984 586.889 166.418 587.076 166.987 587.076ZM171.425 588V581.91H172.433L172.531 582.708C172.709 582.437 172.961 582.218 173.287 582.05C173.623 581.873 174.025 581.784 174.491 581.784C175.154 581.784 175.672 581.975 176.045 582.358C176.428 582.741 176.619 583.296 176.619 584.024V588H175.443V584.206C175.443 583.291 175.019 582.834 174.169 582.834C173.768 582.834 173.404 582.955 173.077 583.198C172.76 583.431 172.601 583.772 172.601 584.22V588H171.425ZM180.735 588.07C180.231 588.07 179.807 588.056 179.461 588.028C179.125 588.009 178.841 587.981 178.607 587.944V587.076H180.763C181.305 587.076 181.697 587.011 181.939 586.88C182.182 586.74 182.303 586.53 182.303 586.25C182.303 586.054 182.243 585.9 182.121 585.788C182.009 585.667 181.771 585.583 181.407 585.536L180.511 585.41C179.811 585.307 179.298 585.13 178.971 584.878C178.645 584.626 178.481 584.211 178.481 583.632C178.481 583.063 178.691 582.624 179.111 582.316C179.531 581.999 180.208 581.84 181.141 581.84C181.58 581.84 181.963 581.854 182.289 581.882C182.616 581.901 182.891 581.929 183.115 581.966V582.834H181.099C180.586 582.834 180.217 582.899 179.993 583.03C179.769 583.151 179.657 583.352 179.657 583.632C179.657 583.837 179.723 584.001 179.853 584.122C179.984 584.243 180.25 584.327 180.651 584.374L181.547 584.486C182.182 584.561 182.663 584.729 182.989 584.99C183.316 585.251 183.479 585.667 183.479 586.236C183.479 586.805 183.269 587.253 182.849 587.58C182.439 587.907 181.734 588.07 180.735 588.07Z" fill="#424D8F"></path>
                    </g>
                    <g id="Group 976623">
                        <g id="Group 976621_2">
                            <circle id="Ellipse 44_2" cx="307.5" cy="584" r="22" fill="#434F92" fill-opacity="0.1" stroke="#828FD4"></circle>
                        </g>
                        <path id="icon_5" fill-rule="evenodd" clip-rule="evenodd" d="M302.5 575C302.5 575.552 302.948 576 303.5 576V581.689L298.579 588.848C298.202 589.396 298 590.046 298 590.711C298 592.527 299.473 594 301.289 594H313.711C315.527 594 317 592.527 317 590.711C317 590.046 316.798 589.396 316.421 588.848L311.5 581.689V576C312.052 576 312.5 575.552 312.5 575C312.5 574.448 312.052 574 311.5 574H303.5C302.948 574 302.5 574.448 302.5 575ZM305.5 576H309.5V581.845C309.5 582.148 309.592 582.444 309.764 582.694L312.036 586H302.964L305.236 582.694C305.408 582.444 305.5 582.148 305.5 581.845V576Z" fill="#424D8F"></path>
                    </g>
                </g>
            </g>
        </g>
    </g>
    <defs>
        <clipPath id="clip0_140_17477">
            <rect width="453" height="732" fill="white"></rect>
        </clipPath>
    </defs>
</svg>
