<svg width="1020" height="312" viewBox="0 0 885 153" fill="none" xmlns="http://www.w3.org/2000/svg">
    <path opacity="0.9" d="M116.5 1L181.885 38.75V114.25L116.5 152L51.1151 114.25V38.75L116.5 1Z" fill="#424E90" fill-opacity="0.1" stroke="#2F3C86" stroke-linecap="square" stroke-dasharray="2 20 10 1 20 10"></path>
    <path opacity="0.9" d="M347.5 1L412.885 38.75V114.25L347.5 152L282.115 114.25V38.75L347.5 1Z" fill="#424E90" fill-opacity="0.1" stroke="#2F3C86" stroke-linecap="square" stroke-dasharray="2 20 10 1 20 10"></path>
    <path opacity="0.9" d="M578.5 1L643.885 38.75V114.25L578.5 152L513.115 114.25V38.75L578.5 1Z" fill="#424E90" fill-opacity="0.1" stroke="#2F3C86" stroke-linecap="square" stroke-dasharray="2 20 10 1 20 10"></path>
    <path opacity="0.9" d="M809.5 1L874.885 38.75V114.25L809.5 152L744.115 114.25V38.75L809.5 1Z" fill="#424E90" fill-opacity="0.1" stroke="#2F3C86" stroke-linecap="square" stroke-dasharray="2 20 10 1 20 10"></path>
    <path d="M261 76L251 70.2265V81.7735L261 76ZM200 77H201.017V75H200V77ZM205.083 77H211.183V75H205.083V77ZM219.317 77H221.35V75H219.317V77ZM225.417 77H231.517V75H225.417V77ZM239.65 77H241.683V75H239.65V77ZM245.75 77H251.85V75H245.75V77Z" fill="#424E91"></path>
    <path d="M51 76L41 70.2265L41 81.7735L51 76ZM-12 77L42 77L42 75L-12 75L-12 77Z" fill="#424E91"></path>
    <path d="M-4 111.5C-4 111.5 3.5 93.0437 19.5 84C31 77.4998 47 76 47 76" stroke="#424E91" stroke-width="2"></path>
    <path d="M-4 41C-4 41 3.5 59.4563 19.5 68.5C31 75.0002 45.5 76 45.5 76" stroke="#424E91" stroke-width="2"></path>
    <path d="M-11 42.0004C-11 42.0004 -3.84874 63.5797 13 70.8728C26 76.5 31.5 76.0003 31.5 76.0003" stroke="#424E91" stroke-width="2"></path>
    <path d="M-11 110.011C-11 110.011 -3.84874 88.4321 13 81.1389C26 75.5117 31.5 76.0114 31.5 76.0114" stroke="#424E91" stroke-width="2"></path>
    <path d="M494 76L484 70.2265V81.7735L494 76ZM433 77H434.017V75H433V77ZM438.083 77H444.183V75H438.083V77ZM452.317 77H454.35V75H452.317V77ZM458.417 77H464.517V75H458.417V77ZM472.65 77H474.683V75H472.65V77ZM478.75 77H484.85V75H478.75V77Z" fill="#424E91"></path>
    <path d="M725 76L715 70.2265V81.7735L725 76ZM664 77H665.017V75H664V77ZM669.083 77H675.183V75H669.083V77ZM683.317 77H685.35V75H683.317V77ZM689.417 77H695.517V75H689.417V77ZM703.65 77H705.683V75H703.65V77ZM709.75 77H715.85V75H709.75V77Z" fill="#424E91"></path>
</svg>
