<svg width="810" height="44" viewBox="0 0 643 26" fill="none" xmlns="http://www.w3.org/2000/svg">
    <path opacity="0.9" d="M12 1L22.3923 19H1.6077L12 1Z" fill="#E72D2D" fill-opacity="0.1" stroke="#E72D2D" stroke-linecap="square"></path>
    <path d="M32.702 17L30.056 8.698H31.4L33.346 15.418C33.374 15.53 33.43 15.586 33.514 15.586C33.5887 15.586 33.64 15.53 33.668 15.418L35.614 8.698H36.944L34.298 17H32.702ZM40.92 17.07C40.1173 17.07 39.478 16.9487 39.002 16.706C38.5353 16.454 38.1993 16.0993 37.994 15.642C37.7887 15.1753 37.686 14.62 37.686 13.976C37.686 13.3787 37.798 12.842 38.022 12.366C38.246 11.8807 38.5773 11.498 39.016 11.218C39.4547 10.9287 39.9867 10.784 40.612 10.784C41.5173 10.784 42.194 11.0593 42.642 11.61C43.09 12.1607 43.314 12.8653 43.314 13.724C43.314 13.8173 43.3093 13.9293 43.3 14.06C43.2907 14.1907 43.2767 14.3073 43.258 14.41H38.904C38.96 14.9793 39.156 15.3993 39.492 15.67C39.828 15.9313 40.318 16.062 40.962 16.062H42.754V16.944C42.5767 16.9813 42.3107 17.0093 41.956 17.028C41.6013 17.056 41.256 17.07 40.92 17.07ZM40.612 11.764C40.108 11.764 39.7113 11.9227 39.422 12.24C39.1327 12.548 38.96 12.9727 38.904 13.514H41.788C41.9187 13.514 42.0027 13.4907 42.04 13.444C42.0867 13.3973 42.11 13.3087 42.11 13.178C42.11 12.8047 41.9747 12.478 41.704 12.198C41.4427 11.9087 41.0787 11.764 40.612 11.764ZM45.876 17V11.918H44.616V10.91H46.884L47.024 12.072C47.248 11.7267 47.5747 11.4373 48.004 11.204C48.4333 10.9613 48.9607 10.84 49.586 10.84C49.698 10.84 49.8053 10.8447 49.908 10.854C50.0107 10.8633 50.0993 10.8773 50.174 10.896V11.946H49.628C48.8347 11.946 48.2047 12.1327 47.738 12.506C47.2807 12.8793 47.052 13.4533 47.052 14.228V17H45.876ZM52.862 19.352C52.722 19.352 52.568 19.338 52.4 19.31C52.2413 19.2913 52.1247 19.2633 52.05 19.226V18.33H52.512C52.792 18.33 53.016 18.302 53.184 18.246C53.3613 18.1993 53.506 18.1013 53.618 17.952C53.7393 17.812 53.8513 17.5973 53.954 17.308L54.066 16.986H53.744L51.434 10.91H52.722L54.318 15.544C54.374 15.6747 54.4393 15.74 54.514 15.74C54.598 15.74 54.668 15.6747 54.724 15.544L56.32 10.91H57.566L55.032 17.602C54.864 18.05 54.682 18.4 54.486 18.652C54.29 18.9133 54.0613 19.0953 53.8 19.198C53.548 19.3007 53.2353 19.352 52.862 19.352ZM65.588 17V8.698H67.66C68.9667 8.698 69.9373 9.062 70.572 9.79C71.2067 10.518 71.524 11.5353 71.524 12.842C71.524 14.1393 71.2067 15.1567 70.572 15.894C69.9373 16.6313 68.9667 17 67.66 17H65.588ZM67.618 9.776H66.82V15.922H67.618C68.5047 15.922 69.1627 15.6747 69.592 15.18C70.0307 14.676 70.25 13.906 70.25 12.87C70.25 11.8153 70.0307 11.036 69.592 10.532C69.1627 10.028 68.5047 9.776 67.618 9.776ZM75.388 9.692V8.306H76.844V9.692H75.388ZM75.654 17V11.918H72.966V10.91H76.83V17H75.654ZM82.248 17.07C81.744 17.07 81.3193 17.056 80.974 17.028C80.638 17.0093 80.3533 16.9813 80.12 16.944V16.076H82.276C82.8173 16.076 83.2093 16.0107 83.452 15.88C83.6947 15.74 83.816 15.53 83.816 15.25C83.816 15.054 83.7553 14.9 83.634 14.788C83.522 14.6667 83.284 14.5827 82.92 14.536L82.024 14.41C81.324 14.3073 80.8107 14.13 80.484 13.878C80.1573 13.626 79.994 13.2107 79.994 12.632C79.994 12.0627 80.204 11.624 80.624 11.316C81.044 10.9987 81.7207 10.84 82.654 10.84C83.0927 10.84 83.4753 10.854 83.802 10.882C84.1287 10.9007 84.404 10.9287 84.628 10.966V11.834H82.612C82.0987 11.834 81.73 11.8993 81.506 12.03C81.282 12.1513 81.17 12.352 81.17 12.632C81.17 12.8373 81.2353 13.0007 81.366 13.122C81.4967 13.2433 81.7627 13.3273 82.164 13.374L83.06 13.486C83.6947 13.5607 84.1753 13.7287 84.502 13.99C84.8287 14.2513 84.992 14.6667 84.992 15.236C84.992 15.8053 84.782 16.2533 84.362 16.58C83.9513 16.9067 83.2467 17.07 82.248 17.07ZM89.248 17.07C88.744 17.07 88.3193 17.056 87.974 17.028C87.638 17.0093 87.3533 16.9813 87.12 16.944V16.076H89.276C89.8173 16.076 90.2093 16.0107 90.452 15.88C90.6947 15.74 90.816 15.53 90.816 15.25C90.816 15.054 90.7553 14.9 90.634 14.788C90.522 14.6667 90.284 14.5827 89.92 14.536L89.024 14.41C88.324 14.3073 87.8107 14.13 87.484 13.878C87.1573 13.626 86.994 13.2107 86.994 12.632C86.994 12.0627 87.204 11.624 87.624 11.316C88.044 10.9987 88.7207 10.84 89.654 10.84C90.0927 10.84 90.4753 10.854 90.802 10.882C91.1287 10.9007 91.404 10.9287 91.628 10.966V11.834H89.612C89.0987 11.834 88.73 11.8993 88.506 12.03C88.282 12.1513 88.17 12.352 88.17 12.632C88.17 12.8373 88.2353 13.0007 88.366 13.122C88.4967 13.2433 88.7627 13.3273 89.164 13.374L90.06 13.486C90.6947 13.5607 91.1753 13.7287 91.502 13.99C91.8287 14.2513 91.992 14.6667 91.992 15.236C91.992 15.8053 91.782 16.2533 91.362 16.58C90.9513 16.9067 90.2467 17.07 89.248 17.07ZM95.856 17.126C95.1747 17.126 94.6473 16.9673 94.274 16.65C93.91 16.3327 93.728 15.8893 93.728 15.32C93.728 14.8907 93.8167 14.5547 93.994 14.312C94.1807 14.06 94.4233 13.8687 94.722 13.738C95.0207 13.6073 95.352 13.5187 95.716 13.472L97.018 13.29C97.2607 13.2527 97.4427 13.1873 97.564 13.094C97.6947 13.0007 97.76 12.8373 97.76 12.604C97.76 12.3427 97.6573 12.1467 97.452 12.016C97.2467 11.8853 96.8593 11.82 96.29 11.82H94.456V10.966C94.68 10.938 94.9553 10.91 95.282 10.882C95.618 10.854 95.9447 10.84 96.262 10.84C97.1487 10.84 97.8067 10.9847 98.236 11.274C98.6653 11.554 98.88 12.0767 98.88 12.842V17H97.9L97.816 16.272C97.648 16.5053 97.4053 16.706 97.088 16.874C96.7707 17.042 96.36 17.126 95.856 17.126ZM96.066 16.174C96.3553 16.174 96.626 16.132 96.878 16.048C97.13 15.964 97.3353 15.838 97.494 15.67C97.6527 15.4927 97.732 15.2733 97.732 15.012V14.074L95.954 14.326C95.6087 14.3727 95.3427 14.4613 95.156 14.592C94.9693 14.7227 94.876 14.9373 94.876 15.236C94.876 15.5533 94.9833 15.7913 95.198 15.95C95.422 16.0993 95.7113 16.174 96.066 16.174ZM104.662 17.07C104.027 17.07 103.533 16.9953 103.178 16.846C102.823 16.6873 102.571 16.4493 102.422 16.132C102.282 15.8147 102.212 15.4087 102.212 14.914V11.904H100.63V10.952H101.708C101.904 10.952 102.039 10.9193 102.114 10.854C102.198 10.7793 102.249 10.6253 102.268 10.392L102.394 8.866H103.388V10.91H106.062V11.904H103.388V14.886C103.388 15.3247 103.505 15.6327 103.738 15.81C103.971 15.978 104.345 16.062 104.858 16.062H106.062V16.944C105.894 16.9813 105.684 17.0093 105.432 17.028C105.189 17.056 104.933 17.07 104.662 17.07ZM110.388 9.692V8.306H111.844V9.692H110.388ZM110.654 17V11.918H107.966V10.91H111.83V17H110.654ZM117.248 17.07C116.744 17.07 116.319 17.056 115.974 17.028C115.638 17.0093 115.353 16.9813 115.12 16.944V16.076H117.276C117.817 16.076 118.209 16.0107 118.452 15.88C118.695 15.74 118.816 15.53 118.816 15.25C118.816 15.054 118.755 14.9 118.634 14.788C118.522 14.6667 118.284 14.5827 117.92 14.536L117.024 14.41C116.324 14.3073 115.811 14.13 115.484 13.878C115.157 13.626 114.994 13.2107 114.994 12.632C114.994 12.0627 115.204 11.624 115.624 11.316C116.044 10.9987 116.721 10.84 117.654 10.84C118.093 10.84 118.475 10.854 118.802 10.882C119.129 10.9007 119.404 10.9287 119.628 10.966V11.834H117.612C117.099 11.834 116.73 11.8993 116.506 12.03C116.282 12.1513 116.17 12.352 116.17 12.632C116.17 12.8373 116.235 13.0007 116.366 13.122C116.497 13.2433 116.763 13.3273 117.164 13.374L118.06 13.486C118.695 13.5607 119.175 13.7287 119.502 13.99C119.829 14.2513 119.992 14.6667 119.992 15.236C119.992 15.8053 119.782 16.2533 119.362 16.58C118.951 16.9067 118.247 17.07 117.248 17.07ZM123.282 17V11.904H121.7V10.91H123.282V10.672C123.282 9.916 123.464 9.33267 123.828 8.922C124.201 8.51133 124.869 8.306 125.83 8.306C126.045 8.306 126.264 8.32 126.488 8.348C126.712 8.36667 126.913 8.39467 127.09 8.432V9.3H125.858C125.373 9.3 125.018 9.40267 124.794 9.608C124.57 9.804 124.458 10.1353 124.458 10.602V10.91H126.964V11.904H124.458V17H123.282ZM131.388 9.692V8.306H132.844V9.692H131.388ZM131.654 17V11.918H128.966V10.91H132.83V17H131.654ZM138.92 17.07C138.117 17.07 137.478 16.9487 137.002 16.706C136.535 16.454 136.199 16.0993 135.994 15.642C135.789 15.1753 135.686 14.62 135.686 13.976C135.686 13.3787 135.798 12.842 136.022 12.366C136.246 11.8807 136.577 11.498 137.016 11.218C137.455 10.9287 137.987 10.784 138.612 10.784C139.517 10.784 140.194 11.0593 140.642 11.61C141.09 12.1607 141.314 12.8653 141.314 13.724C141.314 13.8173 141.309 13.9293 141.3 14.06C141.291 14.1907 141.277 14.3073 141.258 14.41H136.904C136.96 14.9793 137.156 15.3993 137.492 15.67C137.828 15.9313 138.318 16.062 138.962 16.062H140.754V16.944C140.577 16.9813 140.311 17.0093 139.956 17.028C139.601 17.056 139.256 17.07 138.92 17.07ZM138.612 11.764C138.108 11.764 137.711 11.9227 137.422 12.24C137.133 12.548 136.96 12.9727 136.904 13.514H139.788C139.919 13.514 140.003 13.4907 140.04 13.444C140.087 13.3973 140.11 13.3087 140.11 13.178C140.11 12.8047 139.975 12.478 139.704 12.198C139.443 11.9087 139.079 11.764 138.612 11.764ZM145.178 17.126C144.618 17.126 144.142 16.9907 143.75 16.72C143.358 16.44 143.059 16.062 142.854 15.586C142.649 15.11 142.546 14.578 142.546 13.99C142.546 13.374 142.649 12.828 142.854 12.352C143.069 11.8667 143.377 11.484 143.778 11.204C144.189 10.924 144.688 10.784 145.276 10.784C145.649 10.784 145.995 10.854 146.312 10.994C146.639 11.134 146.905 11.3347 147.11 11.596V8.39H148.286V17H147.278L147.18 16.174C146.975 16.482 146.699 16.72 146.354 16.888C146.009 17.0467 145.617 17.126 145.178 17.126ZM145.486 16.076C145.766 16.076 146.027 16.0247 146.27 15.922C146.522 15.8193 146.723 15.6653 146.872 15.46C147.031 15.2453 147.11 14.9793 147.11 14.662V13.234C147.11 12.7673 146.942 12.4173 146.606 12.184C146.279 11.9507 145.906 11.834 145.486 11.834C144.917 11.834 144.483 12.03 144.184 12.422C143.895 12.8047 143.75 13.318 143.75 13.962C143.75 14.5967 143.895 15.11 144.184 15.502C144.483 15.8847 144.917 16.076 145.486 16.076Z" fill="#4D4D4D"></path>
    <path opacity="0.9" d="M181 1L191.392 7V19L181 25L170.608 19V7L181 1Z" fill="#F58B00" fill-opacity="0.1" stroke="#F58B00" stroke-linecap="square"></path>
    <path d="M199.588 17V8.698H201.66C202.967 8.698 203.937 9.062 204.572 9.79C205.207 10.518 205.524 11.5353 205.524 12.842C205.524 14.1393 205.207 15.1567 204.572 15.894C203.937 16.6313 202.967 17 201.66 17H199.588ZM201.618 9.776H200.82V15.922H201.618C202.505 15.922 203.163 15.6747 203.592 15.18C204.031 14.676 204.25 13.906 204.25 12.87C204.25 11.8153 204.031 11.036 203.592 10.532C203.163 10.028 202.505 9.776 201.618 9.776ZM209.388 9.692V8.306H210.844V9.692H209.388ZM209.654 17V11.918H206.966V10.91H210.83V17H209.654ZM216.248 17.07C215.744 17.07 215.319 17.056 214.974 17.028C214.638 17.0093 214.353 16.9813 214.12 16.944V16.076H216.276C216.817 16.076 217.209 16.0107 217.452 15.88C217.695 15.74 217.816 15.53 217.816 15.25C217.816 15.054 217.755 14.9 217.634 14.788C217.522 14.6667 217.284 14.5827 216.92 14.536L216.024 14.41C215.324 14.3073 214.811 14.13 214.484 13.878C214.157 13.626 213.994 13.2107 213.994 12.632C213.994 12.0627 214.204 11.624 214.624 11.316C215.044 10.9987 215.721 10.84 216.654 10.84C217.093 10.84 217.475 10.854 217.802 10.882C218.129 10.9007 218.404 10.9287 218.628 10.966V11.834H216.612C216.099 11.834 215.73 11.8993 215.506 12.03C215.282 12.1513 215.17 12.352 215.17 12.632C215.17 12.8373 215.235 13.0007 215.366 13.122C215.497 13.2433 215.763 13.3273 216.164 13.374L217.06 13.486C217.695 13.5607 218.175 13.7287 218.502 13.99C218.829 14.2513 218.992 14.6667 218.992 15.236C218.992 15.8053 218.782 16.2533 218.362 16.58C217.951 16.9067 217.247 17.07 216.248 17.07ZM223.248 17.07C222.744 17.07 222.319 17.056 221.974 17.028C221.638 17.0093 221.353 16.9813 221.12 16.944V16.076H223.276C223.817 16.076 224.209 16.0107 224.452 15.88C224.695 15.74 224.816 15.53 224.816 15.25C224.816 15.054 224.755 14.9 224.634 14.788C224.522 14.6667 224.284 14.5827 223.92 14.536L223.024 14.41C222.324 14.3073 221.811 14.13 221.484 13.878C221.157 13.626 220.994 13.2107 220.994 12.632C220.994 12.0627 221.204 11.624 221.624 11.316C222.044 10.9987 222.721 10.84 223.654 10.84C224.093 10.84 224.475 10.854 224.802 10.882C225.129 10.9007 225.404 10.9287 225.628 10.966V11.834H223.612C223.099 11.834 222.73 11.8993 222.506 12.03C222.282 12.1513 222.17 12.352 222.17 12.632C222.17 12.8373 222.235 13.0007 222.366 13.122C222.497 13.2433 222.763 13.3273 223.164 13.374L224.06 13.486C224.695 13.5607 225.175 13.7287 225.502 13.99C225.829 14.2513 225.992 14.6667 225.992 15.236C225.992 15.8053 225.782 16.2533 225.362 16.58C224.951 16.9067 224.247 17.07 223.248 17.07ZM229.856 17.126C229.175 17.126 228.647 16.9673 228.274 16.65C227.91 16.3327 227.728 15.8893 227.728 15.32C227.728 14.8907 227.817 14.5547 227.994 14.312C228.181 14.06 228.423 13.8687 228.722 13.738C229.021 13.6073 229.352 13.5187 229.716 13.472L231.018 13.29C231.261 13.2527 231.443 13.1873 231.564 13.094C231.695 13.0007 231.76 12.8373 231.76 12.604C231.76 12.3427 231.657 12.1467 231.452 12.016C231.247 11.8853 230.859 11.82 230.29 11.82H228.456V10.966C228.68 10.938 228.955 10.91 229.282 10.882C229.618 10.854 229.945 10.84 230.262 10.84C231.149 10.84 231.807 10.9847 232.236 11.274C232.665 11.554 232.88 12.0767 232.88 12.842V17H231.9L231.816 16.272C231.648 16.5053 231.405 16.706 231.088 16.874C230.771 17.042 230.36 17.126 229.856 17.126ZM230.066 16.174C230.355 16.174 230.626 16.132 230.878 16.048C231.13 15.964 231.335 15.838 231.494 15.67C231.653 15.4927 231.732 15.2733 231.732 15.012V14.074L229.954 14.326C229.609 14.3727 229.343 14.4613 229.156 14.592C228.969 14.7227 228.876 14.9373 228.876 15.236C228.876 15.5533 228.983 15.7913 229.198 15.95C229.422 16.0993 229.711 16.174 230.066 16.174ZM238.662 17.07C238.027 17.07 237.533 16.9953 237.178 16.846C236.823 16.6873 236.571 16.4493 236.422 16.132C236.282 15.8147 236.212 15.4087 236.212 14.914V11.904H234.63V10.952H235.708C235.904 10.952 236.039 10.9193 236.114 10.854C236.198 10.7793 236.249 10.6253 236.268 10.392L236.394 8.866H237.388V10.91H240.062V11.904H237.388V14.886C237.388 15.3247 237.505 15.6327 237.738 15.81C237.971 15.978 238.345 16.062 238.858 16.062H240.062V16.944C239.894 16.9813 239.684 17.0093 239.432 17.028C239.189 17.056 238.933 17.07 238.662 17.07ZM244.388 9.692V8.306H245.844V9.692H244.388ZM244.654 17V11.918H241.966V10.91H245.83V17H244.654ZM251.248 17.07C250.744 17.07 250.319 17.056 249.974 17.028C249.638 17.0093 249.353 16.9813 249.12 16.944V16.076H251.276C251.817 16.076 252.209 16.0107 252.452 15.88C252.695 15.74 252.816 15.53 252.816 15.25C252.816 15.054 252.755 14.9 252.634 14.788C252.522 14.6667 252.284 14.5827 251.92 14.536L251.024 14.41C250.324 14.3073 249.811 14.13 249.484 13.878C249.157 13.626 248.994 13.2107 248.994 12.632C248.994 12.0627 249.204 11.624 249.624 11.316C250.044 10.9987 250.721 10.84 251.654 10.84C252.093 10.84 252.475 10.854 252.802 10.882C253.129 10.9007 253.404 10.9287 253.628 10.966V11.834H251.612C251.099 11.834 250.73 11.8993 250.506 12.03C250.282 12.1513 250.17 12.352 250.17 12.632C250.17 12.8373 250.235 13.0007 250.366 13.122C250.497 13.2433 250.763 13.3273 251.164 13.374L252.06 13.486C252.695 13.5607 253.175 13.7287 253.502 13.99C253.829 14.2513 253.992 14.6667 253.992 15.236C253.992 15.8053 253.782 16.2533 253.362 16.58C252.951 16.9067 252.247 17.07 251.248 17.07ZM257.282 17V11.904H255.7V10.91H257.282V10.672C257.282 9.916 257.464 9.33267 257.828 8.922C258.201 8.51133 258.869 8.306 259.83 8.306C260.045 8.306 260.264 8.32 260.488 8.348C260.712 8.36667 260.913 8.39467 261.09 8.432V9.3H259.858C259.373 9.3 259.018 9.40267 258.794 9.608C258.57 9.804 258.458 10.1353 258.458 10.602V10.91H260.964V11.904H258.458V17H257.282ZM265.388 9.692V8.306H266.844V9.692H265.388ZM265.654 17V11.918H262.966V10.91H266.83V17H265.654ZM272.92 17.07C272.117 17.07 271.478 16.9487 271.002 16.706C270.535 16.454 270.199 16.0993 269.994 15.642C269.789 15.1753 269.686 14.62 269.686 13.976C269.686 13.3787 269.798 12.842 270.022 12.366C270.246 11.8807 270.577 11.498 271.016 11.218C271.455 10.9287 271.987 10.784 272.612 10.784C273.517 10.784 274.194 11.0593 274.642 11.61C275.09 12.1607 275.314 12.8653 275.314 13.724C275.314 13.8173 275.309 13.9293 275.3 14.06C275.291 14.1907 275.277 14.3073 275.258 14.41H270.904C270.96 14.9793 271.156 15.3993 271.492 15.67C271.828 15.9313 272.318 16.062 272.962 16.062H274.754V16.944C274.577 16.9813 274.311 17.0093 273.956 17.028C273.601 17.056 273.256 17.07 272.92 17.07ZM272.612 11.764C272.108 11.764 271.711 11.9227 271.422 12.24C271.133 12.548 270.96 12.9727 270.904 13.514H273.788C273.919 13.514 274.003 13.4907 274.04 13.444C274.087 13.3973 274.11 13.3087 274.11 13.178C274.11 12.8047 273.975 12.478 273.704 12.198C273.443 11.9087 273.079 11.764 272.612 11.764ZM279.178 17.126C278.618 17.126 278.142 16.9907 277.75 16.72C277.358 16.44 277.059 16.062 276.854 15.586C276.649 15.11 276.546 14.578 276.546 13.99C276.546 13.374 276.649 12.828 276.854 12.352C277.069 11.8667 277.377 11.484 277.778 11.204C278.189 10.924 278.688 10.784 279.276 10.784C279.649 10.784 279.995 10.854 280.312 10.994C280.639 11.134 280.905 11.3347 281.11 11.596V8.39H282.286V17H281.278L281.18 16.174C280.975 16.482 280.699 16.72 280.354 16.888C280.009 17.0467 279.617 17.126 279.178 17.126ZM279.486 16.076C279.766 16.076 280.027 16.0247 280.27 15.922C280.522 15.8193 280.723 15.6653 280.872 15.46C281.031 15.2453 281.11 14.9793 281.11 14.662V13.234C281.11 12.7673 280.942 12.4173 280.606 12.184C280.279 11.9507 279.906 11.834 279.486 11.834C278.917 11.834 278.483 12.03 278.184 12.422C277.895 12.8047 277.75 13.318 277.75 13.962C277.75 14.5967 277.895 15.11 278.184 15.502C278.483 15.8847 278.917 16.076 279.486 16.076Z" fill="#4D4D4D"></path>
    <path opacity="0.9" d="M315 1L327 13L315 25L303 13L315 1Z" fill="#424D8F" fill-opacity="0.1" stroke="#424D8F" stroke-linecap="square"></path>
    <path d="M333.672 17V8.698H335.156L338.194 15.53V8.698H339.328V17H337.844L334.806 10.168V17H333.672ZM343.92 17.07C343.117 17.07 342.478 16.9487 342.002 16.706C341.535 16.454 341.199 16.0993 340.994 15.642C340.789 15.1753 340.686 14.62 340.686 13.976C340.686 13.3787 340.798 12.842 341.022 12.366C341.246 11.8807 341.577 11.498 342.016 11.218C342.455 10.9287 342.987 10.784 343.612 10.784C344.517 10.784 345.194 11.0593 345.642 11.61C346.09 12.1607 346.314 12.8653 346.314 13.724C346.314 13.8173 346.309 13.9293 346.3 14.06C346.291 14.1907 346.277 14.3073 346.258 14.41H341.904C341.96 14.9793 342.156 15.3993 342.492 15.67C342.828 15.9313 343.318 16.062 343.962 16.062H345.754V16.944C345.577 16.9813 345.311 17.0093 344.956 17.028C344.601 17.056 344.256 17.07 343.92 17.07ZM343.612 11.764C343.108 11.764 342.711 11.9227 342.422 12.24C342.133 12.548 341.96 12.9727 341.904 13.514H344.788C344.919 13.514 345.003 13.4907 345.04 13.444C345.087 13.3973 345.11 13.3087 345.11 13.178C345.11 12.8047 344.975 12.478 344.704 12.198C344.443 11.9087 344.079 11.764 343.612 11.764ZM349.996 17.126C349.333 17.126 348.815 16.9347 348.442 16.552C348.069 16.1693 347.882 15.6093 347.882 14.872V10.91H349.058V14.704C349.058 15.6187 349.478 16.076 350.318 16.076C350.719 16.076 351.074 15.9593 351.382 15.726C351.699 15.4833 351.858 15.138 351.858 14.69V10.91H353.034V17H352.026L351.928 16.216C351.751 16.4867 351.494 16.706 351.158 16.874C350.831 17.042 350.444 17.126 349.996 17.126ZM358.662 17.07C358.027 17.07 357.533 16.9953 357.178 16.846C356.823 16.6873 356.571 16.4493 356.422 16.132C356.282 15.8147 356.212 15.4087 356.212 14.914V11.904H354.63V10.952H355.708C355.904 10.952 356.039 10.9193 356.114 10.854C356.198 10.7793 356.249 10.6253 356.268 10.392L356.394 8.866H357.388V10.91H360.062V11.904H357.388V14.886C357.388 15.3247 357.505 15.6327 357.738 15.81C357.971 15.978 358.345 16.062 358.858 16.062H360.062V16.944C359.894 16.9813 359.684 17.0093 359.432 17.028C359.189 17.056 358.933 17.07 358.662 17.07ZM362.876 17V11.918H361.616V10.91H363.884L364.024 12.072C364.248 11.7267 364.575 11.4373 365.004 11.204C365.433 10.9613 365.961 10.84 366.586 10.84C366.698 10.84 366.805 10.8447 366.908 10.854C367.011 10.8633 367.099 10.8773 367.174 10.896V11.946H366.628C365.835 11.946 365.205 12.1327 364.738 12.506C364.281 12.8793 364.052 13.4533 364.052 14.228V17H362.876ZM370.856 17.126C370.175 17.126 369.647 16.9673 369.274 16.65C368.91 16.3327 368.728 15.8893 368.728 15.32C368.728 14.8907 368.817 14.5547 368.994 14.312C369.181 14.06 369.423 13.8687 369.722 13.738C370.021 13.6073 370.352 13.5187 370.716 13.472L372.018 13.29C372.261 13.2527 372.443 13.1873 372.564 13.094C372.695 13.0007 372.76 12.8373 372.76 12.604C372.76 12.3427 372.657 12.1467 372.452 12.016C372.247 11.8853 371.859 11.82 371.29 11.82H369.456V10.966C369.68 10.938 369.955 10.91 370.282 10.882C370.618 10.854 370.945 10.84 371.262 10.84C372.149 10.84 372.807 10.9847 373.236 11.274C373.665 11.554 373.88 12.0767 373.88 12.842V17H372.9L372.816 16.272C372.648 16.5053 372.405 16.706 372.088 16.874C371.771 17.042 371.36 17.126 370.856 17.126ZM371.066 16.174C371.355 16.174 371.626 16.132 371.878 16.048C372.13 15.964 372.335 15.838 372.494 15.67C372.653 15.4927 372.732 15.2733 372.732 15.012V14.074L370.954 14.326C370.609 14.3727 370.343 14.4613 370.156 14.592C369.969 14.7227 369.876 14.9373 369.876 15.236C369.876 15.5533 369.983 15.7913 370.198 15.95C370.422 16.0993 370.711 16.174 371.066 16.174ZM379.998 17.07C379.13 17.07 378.514 16.8833 378.15 16.51C377.795 16.1367 377.618 15.5533 377.618 14.76V9.398H375.658V8.39H378.794V14.746C378.794 15.2313 378.911 15.572 379.144 15.768C379.377 15.964 379.769 16.062 380.32 16.062H381.174V16.958C381.025 16.9953 380.838 17.0233 380.614 17.042C380.399 17.0607 380.194 17.07 379.998 17.07Z" fill="#4D4D4D"></path>
    <path d="M414 1L418.02 7.46632L425.413 9.2918L420.505 15.1137L421.053 22.7082L414 19.84L406.947 22.7082L407.495 15.1137L402.587 9.2918L409.98 7.46632L414 1Z" fill="#008C80" fill-opacity="0.1" stroke="#008C80"></path>
    <path d="M435.262 17.07C435.01 17.07 434.721 17.0653 434.394 17.056C434.067 17.0467 433.759 17.028 433.47 17C433.19 16.9813 432.975 16.9627 432.826 16.944V15.992H435.276C435.957 15.992 436.429 15.88 436.69 15.656C436.961 15.4227 437.096 15.0913 437.096 14.662C437.096 14.242 436.979 13.9433 436.746 13.766C436.513 13.5793 436.135 13.4533 435.612 13.388L435.192 13.332C434.371 13.22 433.75 12.996 433.33 12.66C432.91 12.3147 432.7 11.7593 432.7 10.994C432.7 10.2473 432.943 9.66867 433.428 9.258C433.913 8.838 434.679 8.628 435.724 8.628C436.06 8.628 436.433 8.642 436.844 8.67C437.264 8.68867 437.605 8.71667 437.866 8.754V9.706H435.71C435.038 9.706 434.567 9.818 434.296 10.042C434.035 10.2567 433.904 10.574 433.904 10.994C433.904 11.3953 434.016 11.6893 434.24 11.876C434.464 12.0533 434.828 12.1747 435.332 12.24L435.766 12.296C436.597 12.3987 437.227 12.6273 437.656 12.982C438.085 13.3273 438.3 13.8873 438.3 14.662C438.3 15.4273 438.057 16.02 437.572 16.44C437.087 16.86 436.317 17.07 435.262 17.07ZM441.856 17.126C441.175 17.126 440.647 16.9673 440.274 16.65C439.91 16.3327 439.728 15.8893 439.728 15.32C439.728 14.8907 439.817 14.5547 439.994 14.312C440.181 14.06 440.423 13.8687 440.722 13.738C441.021 13.6073 441.352 13.5187 441.716 13.472L443.018 13.29C443.261 13.2527 443.443 13.1873 443.564 13.094C443.695 13.0007 443.76 12.8373 443.76 12.604C443.76 12.3427 443.657 12.1467 443.452 12.016C443.247 11.8853 442.859 11.82 442.29 11.82H440.456V10.966C440.68 10.938 440.955 10.91 441.282 10.882C441.618 10.854 441.945 10.84 442.262 10.84C443.149 10.84 443.807 10.9847 444.236 11.274C444.665 11.554 444.88 12.0767 444.88 12.842V17H443.9L443.816 16.272C443.648 16.5053 443.405 16.706 443.088 16.874C442.771 17.042 442.36 17.126 441.856 17.126ZM442.066 16.174C442.355 16.174 442.626 16.132 442.878 16.048C443.13 15.964 443.335 15.838 443.494 15.67C443.653 15.4927 443.732 15.2733 443.732 15.012V14.074L441.954 14.326C441.609 14.3727 441.343 14.4613 441.156 14.592C440.969 14.7227 440.876 14.9373 440.876 15.236C440.876 15.5533 440.983 15.7913 441.198 15.95C441.422 16.0993 441.711 16.174 442.066 16.174ZM450.662 17.07C450.027 17.07 449.533 16.9953 449.178 16.846C448.823 16.6873 448.571 16.4493 448.422 16.132C448.282 15.8147 448.212 15.4087 448.212 14.914V11.904H446.63V10.952H447.708C447.904 10.952 448.039 10.9193 448.114 10.854C448.198 10.7793 448.249 10.6253 448.268 10.392L448.394 8.866H449.388V10.91H452.062V11.904H449.388V14.886C449.388 15.3247 449.505 15.6327 449.738 15.81C449.971 15.978 450.345 16.062 450.858 16.062H452.062V16.944C451.894 16.9813 451.684 17.0093 451.432 17.028C451.189 17.056 450.933 17.07 450.662 17.07ZM456.388 9.692V8.306H457.844V9.692H456.388ZM456.654 17V11.918H453.966V10.91H457.83V17H456.654ZM463.248 17.07C462.744 17.07 462.319 17.056 461.974 17.028C461.638 17.0093 461.353 16.9813 461.12 16.944V16.076H463.276C463.817 16.076 464.209 16.0107 464.452 15.88C464.695 15.74 464.816 15.53 464.816 15.25C464.816 15.054 464.755 14.9 464.634 14.788C464.522 14.6667 464.284 14.5827 463.92 14.536L463.024 14.41C462.324 14.3073 461.811 14.13 461.484 13.878C461.157 13.626 460.994 13.2107 460.994 12.632C460.994 12.0627 461.204 11.624 461.624 11.316C462.044 10.9987 462.721 10.84 463.654 10.84C464.093 10.84 464.475 10.854 464.802 10.882C465.129 10.9007 465.404 10.9287 465.628 10.966V11.834H463.612C463.099 11.834 462.73 11.8993 462.506 12.03C462.282 12.1513 462.17 12.352 462.17 12.632C462.17 12.8373 462.235 13.0007 462.366 13.122C462.497 13.2433 462.763 13.3273 463.164 13.374L464.06 13.486C464.695 13.5607 465.175 13.7287 465.502 13.99C465.829 14.2513 465.992 14.6667 465.992 15.236C465.992 15.8053 465.782 16.2533 465.362 16.58C464.951 16.9067 464.247 17.07 463.248 17.07ZM469.282 17V11.904H467.7V10.91H469.282V10.672C469.282 9.916 469.464 9.33267 469.828 8.922C470.201 8.51133 470.869 8.306 471.83 8.306C472.045 8.306 472.264 8.32 472.488 8.348C472.712 8.36667 472.913 8.39467 473.09 8.432V9.3H471.858C471.373 9.3 471.018 9.40267 470.794 9.608C470.57 9.804 470.458 10.1353 470.458 10.602V10.91H472.964V11.904H470.458V17H469.282ZM477.388 9.692V8.306H478.844V9.692H477.388ZM477.654 17V11.918H474.966V10.91H478.83V17H477.654ZM484.92 17.07C484.117 17.07 483.478 16.9487 483.002 16.706C482.535 16.454 482.199 16.0993 481.994 15.642C481.789 15.1753 481.686 14.62 481.686 13.976C481.686 13.3787 481.798 12.842 482.022 12.366C482.246 11.8807 482.577 11.498 483.016 11.218C483.455 10.9287 483.987 10.784 484.612 10.784C485.517 10.784 486.194 11.0593 486.642 11.61C487.09 12.1607 487.314 12.8653 487.314 13.724C487.314 13.8173 487.309 13.9293 487.3 14.06C487.291 14.1907 487.277 14.3073 487.258 14.41H482.904C482.96 14.9793 483.156 15.3993 483.492 15.67C483.828 15.9313 484.318 16.062 484.962 16.062H486.754V16.944C486.577 16.9813 486.311 17.0093 485.956 17.028C485.601 17.056 485.256 17.07 484.92 17.07ZM484.612 11.764C484.108 11.764 483.711 11.9227 483.422 12.24C483.133 12.548 482.96 12.9727 482.904 13.514H485.788C485.919 13.514 486.003 13.4907 486.04 13.444C486.087 13.3973 486.11 13.3087 486.11 13.178C486.11 12.8047 485.975 12.478 485.704 12.198C485.443 11.9087 485.079 11.764 484.612 11.764ZM491.178 17.126C490.618 17.126 490.142 16.9907 489.75 16.72C489.358 16.44 489.059 16.062 488.854 15.586C488.649 15.11 488.546 14.578 488.546 13.99C488.546 13.374 488.649 12.828 488.854 12.352C489.069 11.8667 489.377 11.484 489.778 11.204C490.189 10.924 490.688 10.784 491.276 10.784C491.649 10.784 491.995 10.854 492.312 10.994C492.639 11.134 492.905 11.3347 493.11 11.596V8.39H494.286V17H493.278L493.18 16.174C492.975 16.482 492.699 16.72 492.354 16.888C492.009 17.0467 491.617 17.126 491.178 17.126ZM491.486 16.076C491.766 16.076 492.027 16.0247 492.27 15.922C492.522 15.8193 492.723 15.6653 492.872 15.46C493.031 15.2453 493.11 14.9793 493.11 14.662V13.234C493.11 12.7673 492.942 12.4173 492.606 12.184C492.279 11.9507 491.906 11.834 491.486 11.834C490.917 11.834 490.483 12.03 490.184 12.422C489.895 12.8047 489.75 13.318 489.75 13.962C489.75 14.5967 489.895 15.11 490.184 15.502C490.483 15.8847 490.917 16.076 491.486 16.076Z" fill="#4D4D4D"></path>
    <path d="M527 1L529.855 4.21224L534.053 3.2918L534.475 7.56886L538.413 9.2918L536.24 13L538.413 16.7082L534.475 18.4311L534.053 22.7082L529.855 21.7878L527 25L524.145 21.7878L519.947 22.7082L519.525 18.4311L515.587 16.7082L517.76 13L515.587 9.2918L519.525 7.56886L519.947 3.2918L524.145 4.21224L527 1Z" fill="#99B100" fill-opacity="0.1" stroke="#A8C106"></path>
    <path d="M547.702 17L545.056 8.698H546.4L548.346 15.418C548.374 15.53 548.43 15.586 548.514 15.586C548.589 15.586 548.64 15.53 548.668 15.418L550.614 8.698H551.944L549.298 17H547.702ZM555.92 17.07C555.117 17.07 554.478 16.9487 554.002 16.706C553.535 16.454 553.199 16.0993 552.994 15.642C552.789 15.1753 552.686 14.62 552.686 13.976C552.686 13.3787 552.798 12.842 553.022 12.366C553.246 11.8807 553.577 11.498 554.016 11.218C554.455 10.9287 554.987 10.784 555.612 10.784C556.517 10.784 557.194 11.0593 557.642 11.61C558.09 12.1607 558.314 12.8653 558.314 13.724C558.314 13.8173 558.309 13.9293 558.3 14.06C558.291 14.1907 558.277 14.3073 558.258 14.41H553.904C553.96 14.9793 554.156 15.3993 554.492 15.67C554.828 15.9313 555.318 16.062 555.962 16.062H557.754V16.944C557.577 16.9813 557.311 17.0093 556.956 17.028C556.601 17.056 556.256 17.07 555.92 17.07ZM555.612 11.764C555.108 11.764 554.711 11.9227 554.422 12.24C554.133 12.548 553.96 12.9727 553.904 13.514H556.788C556.919 13.514 557.003 13.4907 557.04 13.444C557.087 13.3973 557.11 13.3087 557.11 13.178C557.11 12.8047 556.975 12.478 556.704 12.198C556.443 11.9087 556.079 11.764 555.612 11.764ZM560.876 17V11.918H559.616V10.91H561.884L562.024 12.072C562.248 11.7267 562.575 11.4373 563.004 11.204C563.433 10.9613 563.961 10.84 564.586 10.84C564.698 10.84 564.805 10.8447 564.908 10.854C565.011 10.8633 565.099 10.8773 565.174 10.896V11.946H564.628C563.835 11.946 563.205 12.1327 562.738 12.506C562.281 12.8793 562.052 13.4533 562.052 14.228V17H560.876ZM567.862 19.352C567.722 19.352 567.568 19.338 567.4 19.31C567.241 19.2913 567.125 19.2633 567.05 19.226V18.33H567.512C567.792 18.33 568.016 18.302 568.184 18.246C568.361 18.1993 568.506 18.1013 568.618 17.952C568.739 17.812 568.851 17.5973 568.954 17.308L569.066 16.986H568.744L566.434 10.91H567.722L569.318 15.544C569.374 15.6747 569.439 15.74 569.514 15.74C569.598 15.74 569.668 15.6747 569.724 15.544L571.32 10.91H572.566L570.032 17.602C569.864 18.05 569.682 18.4 569.486 18.652C569.29 18.9133 569.061 19.0953 568.8 19.198C568.548 19.3007 568.235 19.352 567.862 19.352ZM583.262 17.07C583.01 17.07 582.721 17.0653 582.394 17.056C582.067 17.0467 581.759 17.028 581.47 17C581.19 16.9813 580.975 16.9627 580.826 16.944V15.992H583.276C583.957 15.992 584.429 15.88 584.69 15.656C584.961 15.4227 585.096 15.0913 585.096 14.662C585.096 14.242 584.979 13.9433 584.746 13.766C584.513 13.5793 584.135 13.4533 583.612 13.388L583.192 13.332C582.371 13.22 581.75 12.996 581.33 12.66C580.91 12.3147 580.7 11.7593 580.7 10.994C580.7 10.2473 580.943 9.66867 581.428 9.258C581.913 8.838 582.679 8.628 583.724 8.628C584.06 8.628 584.433 8.642 584.844 8.67C585.264 8.68867 585.605 8.71667 585.866 8.754V9.706H583.71C583.038 9.706 582.567 9.818 582.296 10.042C582.035 10.2567 581.904 10.574 581.904 10.994C581.904 11.3953 582.016 11.6893 582.24 11.876C582.464 12.0533 582.828 12.1747 583.332 12.24L583.766 12.296C584.597 12.3987 585.227 12.6273 585.656 12.982C586.085 13.3273 586.3 13.8873 586.3 14.662C586.3 15.4273 586.057 16.02 585.572 16.44C585.087 16.86 584.317 17.07 583.262 17.07ZM589.856 17.126C589.175 17.126 588.647 16.9673 588.274 16.65C587.91 16.3327 587.728 15.8893 587.728 15.32C587.728 14.8907 587.817 14.5547 587.994 14.312C588.181 14.06 588.423 13.8687 588.722 13.738C589.021 13.6073 589.352 13.5187 589.716 13.472L591.018 13.29C591.261 13.2527 591.443 13.1873 591.564 13.094C591.695 13.0007 591.76 12.8373 591.76 12.604C591.76 12.3427 591.657 12.1467 591.452 12.016C591.247 11.8853 590.859 11.82 590.29 11.82H588.456V10.966C588.68 10.938 588.955 10.91 589.282 10.882C589.618 10.854 589.945 10.84 590.262 10.84C591.149 10.84 591.807 10.9847 592.236 11.274C592.665 11.554 592.88 12.0767 592.88 12.842V17H591.9L591.816 16.272C591.648 16.5053 591.405 16.706 591.088 16.874C590.771 17.042 590.36 17.126 589.856 17.126ZM590.066 16.174C590.355 16.174 590.626 16.132 590.878 16.048C591.13 15.964 591.335 15.838 591.494 15.67C591.653 15.4927 591.732 15.2733 591.732 15.012V14.074L589.954 14.326C589.609 14.3727 589.343 14.4613 589.156 14.592C588.969 14.7227 588.876 14.9373 588.876 15.236C588.876 15.5533 588.983 15.7913 589.198 15.95C589.422 16.0993 589.711 16.174 590.066 16.174ZM598.662 17.07C598.027 17.07 597.533 16.9953 597.178 16.846C596.823 16.6873 596.571 16.4493 596.422 16.132C596.282 15.8147 596.212 15.4087 596.212 14.914V11.904H594.63V10.952H595.708C595.904 10.952 596.039 10.9193 596.114 10.854C596.198 10.7793 596.249 10.6253 596.268 10.392L596.394 8.866H597.388V10.91H600.062V11.904H597.388V14.886C597.388 15.3247 597.505 15.6327 597.738 15.81C597.971 15.978 598.345 16.062 598.858 16.062H600.062V16.944C599.894 16.9813 599.684 17.0093 599.432 17.028C599.189 17.056 598.933 17.07 598.662 17.07ZM604.388 9.692V8.306H605.844V9.692H604.388ZM604.654 17V11.918H601.966V10.91H605.83V17H604.654ZM611.248 17.07C610.744 17.07 610.319 17.056 609.974 17.028C609.638 17.0093 609.353 16.9813 609.12 16.944V16.076H611.276C611.817 16.076 612.209 16.0107 612.452 15.88C612.695 15.74 612.816 15.53 612.816 15.25C612.816 15.054 612.755 14.9 612.634 14.788C612.522 14.6667 612.284 14.5827 611.92 14.536L611.024 14.41C610.324 14.3073 609.811 14.13 609.484 13.878C609.157 13.626 608.994 13.2107 608.994 12.632C608.994 12.0627 609.204 11.624 609.624 11.316C610.044 10.9987 610.721 10.84 611.654 10.84C612.093 10.84 612.475 10.854 612.802 10.882C613.129 10.9007 613.404 10.9287 613.628 10.966V11.834H611.612C611.099 11.834 610.73 11.8993 610.506 12.03C610.282 12.1513 610.17 12.352 610.17 12.632C610.17 12.8373 610.235 13.0007 610.366 13.122C610.497 13.2433 610.763 13.3273 611.164 13.374L612.06 13.486C612.695 13.5607 613.175 13.7287 613.502 13.99C613.829 14.2513 613.992 14.6667 613.992 15.236C613.992 15.8053 613.782 16.2533 613.362 16.58C612.951 16.9067 612.247 17.07 611.248 17.07ZM617.282 17V11.904H615.7V10.91H617.282V10.672C617.282 9.916 617.464 9.33267 617.828 8.922C618.201 8.51133 618.869 8.306 619.83 8.306C620.045 8.306 620.264 8.32 620.488 8.348C620.712 8.36667 620.913 8.39467 621.09 8.432V9.3H619.858C619.373 9.3 619.018 9.40267 618.794 9.608C618.57 9.804 618.458 10.1353 618.458 10.602V10.91H620.964V11.904H618.458V17H617.282ZM625.388 9.692V8.306H626.844V9.692H625.388ZM625.654 17V11.918H622.966V10.91H626.83V17H625.654ZM632.92 17.07C632.117 17.07 631.478 16.9487 631.002 16.706C630.535 16.454 630.199 16.0993 629.994 15.642C629.789 15.1753 629.686 14.62 629.686 13.976C629.686 13.3787 629.798 12.842 630.022 12.366C630.246 11.8807 630.577 11.498 631.016 11.218C631.455 10.9287 631.987 10.784 632.612 10.784C633.517 10.784 634.194 11.0593 634.642 11.61C635.09 12.1607 635.314 12.8653 635.314 13.724C635.314 13.8173 635.309 13.9293 635.3 14.06C635.291 14.1907 635.277 14.3073 635.258 14.41H630.904C630.96 14.9793 631.156 15.3993 631.492 15.67C631.828 15.9313 632.318 16.062 632.962 16.062H634.754V16.944C634.577 16.9813 634.311 17.0093 633.956 17.028C633.601 17.056 633.256 17.07 632.92 17.07ZM632.612 11.764C632.108 11.764 631.711 11.9227 631.422 12.24C631.133 12.548 630.96 12.9727 630.904 13.514H633.788C633.919 13.514 634.003 13.4907 634.04 13.444C634.087 13.3973 634.11 13.3087 634.11 13.178C634.11 12.8047 633.975 12.478 633.704 12.198C633.443 11.9087 633.079 11.764 632.612 11.764ZM639.178 17.126C638.618 17.126 638.142 16.9907 637.75 16.72C637.358 16.44 637.059 16.062 636.854 15.586C636.649 15.11 636.546 14.578 636.546 13.99C636.546 13.374 636.649 12.828 636.854 12.352C637.069 11.8667 637.377 11.484 637.778 11.204C638.189 10.924 638.688 10.784 639.276 10.784C639.649 10.784 639.995 10.854 640.312 10.994C640.639 11.134 640.905 11.3347 641.11 11.596V8.39H642.286V17H641.278L641.18 16.174C640.975 16.482 640.699 16.72 640.354 16.888C640.009 17.0467 639.617 17.126 639.178 17.126ZM639.486 16.076C639.766 16.076 640.027 16.0247 640.27 15.922C640.522 15.8193 640.723 15.6653 640.872 15.46C641.031 15.2453 641.11 14.9793 641.11 14.662V13.234C641.11 12.7673 640.942 12.4173 640.606 12.184C640.279 11.9507 639.906 11.834 639.486 11.834C638.917 11.834 638.483 12.03 638.184 12.422C637.895 12.8047 637.75 13.318 637.75 13.962C637.75 14.5967 637.895 15.11 638.184 15.502C638.483 15.8847 638.917 16.076 639.486 16.076Z" fill="#4D4D4D"></path>
</svg>
