<svg width="420" height="640" viewBox="0 0 453 732" fill="none" xmlns="http://www.w3.org/2000/svg">
    <g id="Spaceship Distro" clip-path="url(#clip0_140_17426)">
        <g id="ship and seats">
            <path id="Ship body" opacity="0.9" d="M219.91 77.7741C223.682 74.4692 229.318 74.4692 233.09 77.7741L368.671 196.567C370.512 198.181 371.698 200.414 372.003 202.844L407.006 481.866C407.231 483.656 406.967 485.473 406.243 487.125L309.609 707.591C308.015 711.228 304.421 713.577 300.45 713.577H152.55C148.579 713.577 144.985 711.228 143.391 707.591L46.7574 487.125C46.0332 485.473 45.7694 483.656 45.994 481.866L80.9971 202.844C81.3019 200.414 82.4875 198.181 84.3293 196.567L219.91 77.7741Z" fill="#424E90" fill-opacity="0.1" stroke="#2F3C86" stroke-linecap="round" stroke-linejoin="round" stroke-dasharray="2 20 10 1 20 10"></path>
            <circle id="Ellipse 8" cx="122" cy="267" r="22.5" fill="#434F92" fill-opacity="0.4" stroke="white" data-name="Ellipse 8" data-value="vacant"><title>name: Ellipse 8
            value: vacant</title></circle>
            <circle id="Ellipse 9" cx="179" cy="267" r="22.5" fill="#D015B2" fill-opacity="0.4" stroke="white" data-name="Ellipse 9" data-value="unsold"><title>name: Ellipse 9
            value: unsold</title></circle>
            <circle id="Ellipse 14" cx="122" cy="331" r="22.5" fill="#434F92" fill-opacity="0.4" stroke="white" data-name="Ellipse 14" data-value="vacant"><title>name: Ellipse 14
            value: vacant</title></circle>
            <circle id="Ellipse 15" cx="179" cy="331" r="22.5" fill="#434F92" fill-opacity="0.4" stroke="white"></circle>
            <circle id="Ellipse 16" cx="122" cy="395" r="22.5" fill="#008C80" fill-opacity="0.4" stroke="white"></circle>
            <circle id="Ellipse 17" cx="179" cy="395" r="22.5" fill="#008C80" fill-opacity="0.4" stroke="white"></circle>
            <circle id="Ellipse 18" cx="122" cy="459" r="22.5" fill="#434F92" fill-opacity="0.4" stroke="white"></circle>
            <circle id="Ellipse 19" cx="179" cy="459" r="22.5" fill="#D015B2" fill-opacity="0.4" stroke="white"></circle>
            <circle id="Ellipse 28" cx="122" cy="523" r="22.5" fill="#D015B2" fill-opacity="0.4" stroke="white"></circle>
            <circle id="Ellipse 29" cx="179" cy="523" r="22.5" fill="#434F92" fill-opacity="0.4" stroke="white"></circle>
            <circle id="Ellipse 20" cx="273" cy="331" r="22.5" fill="#008C80" fill-opacity="0.4" stroke="white"></circle>
            <circle id="Ellipse 21" cx="330" cy="331" r="22.5" fill="#008C80" fill-opacity="0.4" stroke="white"></circle>
            <circle id="Ellipse 22" cx="273" cy="395" r="22.5" fill="#008C80" fill-opacity="0.4" stroke="white"></circle>
            <circle id="Ellipse 23" cx="330" cy="395" r="22.5" fill="#008C80" fill-opacity="0.4" stroke="white"></circle>
            <circle id="Ellipse 24" cx="273" cy="459" r="22.5" fill="#434F92" fill-opacity="0.4" stroke="white"></circle>
            <circle id="Ellipse 25" cx="330" cy="459" r="22.5" fill="#434F92" fill-opacity="0.4" stroke="white"></circle>
            <circle id="Ellipse 26" cx="273" cy="523" r="22.5" fill="#434F92" fill-opacity="0.4" stroke="white"></circle>
            <circle id="Ellipse 27" cx="330" cy="523" r="22.5" fill="#008C80" fill-opacity="0.4" stroke="white"></circle>
            <circle id="Ellipse 12" cx="273" cy="267" r="22.5" fill="#D015B2" fill-opacity="0.4" stroke="white" data-name="Ellipse 12" data-value="unsold"><title>name: Ellipse 12
            value: unsold</title></circle>
            <circle id="Ellipse 13" cx="330" cy="267" r="22.5" fill="#008C80" fill-opacity="0.4" stroke="white" data-name="Ellipse 13" data-value="boarded"><title>name: Ellipse 13
            value: boarded</title></circle>
        </g>
        <g id="Frame 11231342">
            <g id="Frame 11231339">
                <circle id="Ellipse 12_2" opacity="0.4" cx="24" cy="33" r="9.5" transform="rotate(90 24 33)" fill="#434F92" fill-opacity="0.7" stroke="white"></circle>
                <path id="Title" d="M42.702 37L40.056 28.698H41.4L43.346 35.418C43.374 35.53 43.43 35.586 43.514 35.586C43.5887 35.586 43.64 35.53 43.668 35.418L45.614 28.698H46.944L44.298 37H42.702ZM49.856 37.126C49.1747 37.126 48.6473 36.9673 48.274 36.65C47.91 36.3327 47.728 35.8893 47.728 35.32C47.728 34.8907 47.8167 34.5547 47.994 34.312C48.1807 34.06 48.4233 33.8687 48.722 33.738C49.0207 33.6073 49.352 33.5187 49.716 33.472L51.018 33.29C51.2607 33.2527 51.4427 33.1873 51.564 33.094C51.6947 33.0007 51.76 32.8373 51.76 32.604C51.76 32.3427 51.6573 32.1467 51.452 32.016C51.2467 31.8853 50.8593 31.82 50.29 31.82H48.456V30.966C48.68 30.938 48.9553 30.91 49.282 30.882C49.618 30.854 49.9447 30.84 50.262 30.84C51.1487 30.84 51.8067 30.9847 52.236 31.274C52.6653 31.554 52.88 32.0767 52.88 32.842V37H51.9L51.816 36.272C51.648 36.5053 51.4053 36.706 51.088 36.874C50.7707 37.042 50.36 37.126 49.856 37.126ZM50.066 36.174C50.3553 36.174 50.626 36.132 50.878 36.048C51.13 35.964 51.3353 35.838 51.494 35.67C51.6527 35.4927 51.732 35.2733 51.732 35.012V34.074L49.954 34.326C49.6087 34.3727 49.3427 34.4613 49.156 34.592C48.9693 34.7227 48.876 34.9373 48.876 35.236C48.876 35.5533 48.9833 35.7913 49.198 35.95C49.422 36.0993 49.7113 36.174 50.066 36.174ZM58.144 37.07C57.3507 37.07 56.7207 36.9487 56.254 36.706C55.7873 36.454 55.4513 36.0947 55.246 35.628C55.0407 35.1613 54.938 34.606 54.938 33.962C54.938 32.9913 55.1853 32.2307 55.68 31.68C56.184 31.12 57.024 30.84 58.2 30.84C58.5267 30.84 58.844 30.854 59.152 30.882C59.4693 30.9007 59.7167 30.9287 59.894 30.966V31.876H58.242C57.5233 31.876 56.9913 32.0393 56.646 32.366C56.31 32.6833 56.142 33.2153 56.142 33.962C56.142 34.6993 56.3147 35.2313 56.66 35.558C57.0053 35.8753 57.5327 36.034 58.242 36.034H59.894V36.944C59.7167 36.9813 59.4647 37.0093 59.138 37.028C58.8207 37.056 58.4893 37.07 58.144 37.07ZM63.856 37.126C63.1747 37.126 62.6473 36.9673 62.274 36.65C61.91 36.3327 61.728 35.8893 61.728 35.32C61.728 34.8907 61.8167 34.5547 61.994 34.312C62.1807 34.06 62.4233 33.8687 62.722 33.738C63.0207 33.6073 63.352 33.5187 63.716 33.472L65.018 33.29C65.2607 33.2527 65.4427 33.1873 65.564 33.094C65.6947 33.0007 65.76 32.8373 65.76 32.604C65.76 32.3427 65.6573 32.1467 65.452 32.016C65.2467 31.8853 64.8593 31.82 64.29 31.82H62.456V30.966C62.68 30.938 62.9553 30.91 63.282 30.882C63.618 30.854 63.9447 30.84 64.262 30.84C65.1487 30.84 65.8067 30.9847 66.236 31.274C66.6653 31.554 66.88 32.0767 66.88 32.842V37H65.9L65.816 36.272C65.648 36.5053 65.4053 36.706 65.088 36.874C64.7707 37.042 64.36 37.126 63.856 37.126ZM64.066 36.174C64.3553 36.174 64.626 36.132 64.878 36.048C65.13 35.964 65.3353 35.838 65.494 35.67C65.6527 35.4927 65.732 35.2733 65.732 35.012V34.074L63.954 34.326C63.6087 34.3727 63.3427 34.4613 63.156 34.592C62.9693 34.7227 62.876 34.9373 62.876 35.236C62.876 35.5533 62.9833 35.7913 63.198 35.95C63.422 36.0993 63.7113 36.174 64.066 36.174ZM68.938 37V30.91H69.946L70.044 31.708C70.2213 31.4373 70.4733 31.218 70.8 31.05C71.136 30.8727 71.5373 30.784 72.004 30.784C72.6667 30.784 73.1847 30.9753 73.558 31.358C73.9407 31.7407 74.132 32.296 74.132 33.024V37H72.956V33.206C72.956 32.2913 72.5313 31.834 71.682 31.834C71.2807 31.834 70.9167 31.9553 70.59 32.198C70.2727 32.4313 70.114 32.772 70.114 33.22V37H68.938ZM79.662 37.07C79.0273 37.07 78.5327 36.9953 78.178 36.846C77.8233 36.6873 77.5713 36.4493 77.422 36.132C77.282 35.8147 77.212 35.4087 77.212 34.914V31.904H75.63V30.952H76.708C76.904 30.952 77.0393 30.9193 77.114 30.854C77.198 30.7793 77.2493 30.6253 77.268 30.392L77.394 28.866H78.388V30.91H81.062V31.904H78.388V34.886C78.388 35.3247 78.5047 35.6327 78.738 35.81C78.9713 35.978 79.3447 36.062 79.858 36.062H81.062V36.944C80.894 36.9813 80.684 37.0093 80.432 37.028C80.1893 37.056 79.9327 37.07 79.662 37.07ZM92.248 37.07C91.744 37.07 91.3193 37.056 90.974 37.028C90.638 37.0093 90.3533 36.9813 90.12 36.944V36.076H92.276C92.8173 36.076 93.2093 36.0107 93.452 35.88C93.6947 35.74 93.816 35.53 93.816 35.25C93.816 35.054 93.7553 34.9 93.634 34.788C93.522 34.6667 93.284 34.5827 92.92 34.536L92.024 34.41C91.324 34.3073 90.8107 34.13 90.484 33.878C90.1573 33.626 89.994 33.2107 89.994 32.632C89.994 32.0627 90.204 31.624 90.624 31.316C91.044 30.9987 91.7207 30.84 92.654 30.84C93.0927 30.84 93.4753 30.854 93.802 30.882C94.1287 30.9007 94.404 30.9287 94.628 30.966V31.834H92.612C92.0987 31.834 91.73 31.8993 91.506 32.03C91.282 32.1513 91.17 32.352 91.17 32.632C91.17 32.8373 91.2353 33.0007 91.366 33.122C91.4967 33.2433 91.7627 33.3273 92.164 33.374L93.06 33.486C93.6947 33.5607 94.1753 33.7287 94.502 33.99C94.8287 34.2513 94.992 34.6667 94.992 35.236C94.992 35.8053 94.782 36.2533 94.362 36.58C93.9513 36.9067 93.2467 37.07 92.248 37.07ZM99.92 37.07C99.1173 37.07 98.478 36.9487 98.002 36.706C97.5353 36.454 97.1993 36.0993 96.994 35.642C96.7887 35.1753 96.686 34.62 96.686 33.976C96.686 33.3787 96.798 32.842 97.022 32.366C97.246 31.8807 97.5773 31.498 98.016 31.218C98.4547 30.9287 98.9867 30.784 99.612 30.784C100.517 30.784 101.194 31.0593 101.642 31.61C102.09 32.1607 102.314 32.8653 102.314 33.724C102.314 33.8173 102.309 33.9293 102.3 34.06C102.291 34.1907 102.277 34.3073 102.258 34.41H97.904C97.96 34.9793 98.156 35.3993 98.492 35.67C98.828 35.9313 99.318 36.062 99.962 36.062H101.754V36.944C101.577 36.9813 101.311 37.0093 100.956 37.028C100.601 37.056 100.256 37.07 99.92 37.07ZM99.612 31.764C99.108 31.764 98.7113 31.9227 98.422 32.24C98.1327 32.548 97.96 32.9727 97.904 33.514H100.788C100.919 33.514 101.003 33.4907 101.04 33.444C101.087 33.3973 101.11 33.3087 101.11 33.178C101.11 32.8047 100.975 32.478 100.704 32.198C100.443 31.9087 100.079 31.764 99.612 31.764ZM105.856 37.126C105.175 37.126 104.647 36.9673 104.274 36.65C103.91 36.3327 103.728 35.8893 103.728 35.32C103.728 34.8907 103.817 34.5547 103.994 34.312C104.181 34.06 104.423 33.8687 104.722 33.738C105.021 33.6073 105.352 33.5187 105.716 33.472L107.018 33.29C107.261 33.2527 107.443 33.1873 107.564 33.094C107.695 33.0007 107.76 32.8373 107.76 32.604C107.76 32.3427 107.657 32.1467 107.452 32.016C107.247 31.8853 106.859 31.82 106.29 31.82H104.456V30.966C104.68 30.938 104.955 30.91 105.282 30.882C105.618 30.854 105.945 30.84 106.262 30.84C107.149 30.84 107.807 30.9847 108.236 31.274C108.665 31.554 108.88 32.0767 108.88 32.842V37H107.9L107.816 36.272C107.648 36.5053 107.405 36.706 107.088 36.874C106.771 37.042 106.36 37.126 105.856 37.126ZM106.066 36.174C106.355 36.174 106.626 36.132 106.878 36.048C107.13 35.964 107.335 35.838 107.494 35.67C107.653 35.4927 107.732 35.2733 107.732 35.012V34.074L105.954 34.326C105.609 34.3727 105.343 34.4613 105.156 34.592C104.969 34.7227 104.876 34.9373 104.876 35.236C104.876 35.5533 104.983 35.7913 105.198 35.95C105.422 36.0993 105.711 36.174 106.066 36.174ZM114.662 37.07C114.027 37.07 113.533 36.9953 113.178 36.846C112.823 36.6873 112.571 36.4493 112.422 36.132C112.282 35.8147 112.212 35.4087 112.212 34.914V31.904H110.63V30.952H111.708C111.904 30.952 112.039 30.9193 112.114 30.854C112.198 30.7793 112.249 30.6253 112.268 30.392L112.394 28.866H113.388V30.91H116.062V31.904H113.388V34.886C113.388 35.3247 113.505 35.6327 113.738 35.81C113.971 35.978 114.345 36.062 114.858 36.062H116.062V36.944C115.894 36.9813 115.684 37.0093 115.432 37.028C115.189 37.056 114.933 37.07 114.662 37.07Z" fill="#2C2C2C"></path>
            </g>
            <g id="Frame 11231340">
                <circle id="Ellipse 12_3" opacity="0.4" cx="181.5" cy="33" r="9.5" transform="rotate(90 181.5 33)" fill="#008C80" fill-opacity="0.7" stroke="white"></circle>
                <path id="Title_2" d="M198.284 37V28.698H201.07C201.714 28.698 202.232 28.796 202.624 28.992C203.016 29.188 203.301 29.4493 203.478 29.776C203.655 30.1027 203.744 30.462 203.744 30.854C203.744 31.218 203.651 31.568 203.464 31.904C203.277 32.2307 202.965 32.478 202.526 32.646C203.03 32.7953 203.399 33.0613 203.632 33.444C203.865 33.8173 203.982 34.2187 203.982 34.648C203.982 35.32 203.749 35.88 203.282 36.328C202.815 36.776 202.097 37 201.126 37H198.284ZM201.042 29.734H199.474V32.198H201.042C201.593 32.198 201.975 32.0767 202.19 31.834C202.414 31.5913 202.526 31.2927 202.526 30.938C202.526 30.5927 202.409 30.308 202.176 30.084C201.943 29.8507 201.565 29.734 201.042 29.734ZM201.084 33.178H199.474V35.964H201.084C201.691 35.964 202.12 35.8333 202.372 35.572C202.624 35.3013 202.75 34.9653 202.75 34.564C202.75 34.1627 202.615 33.8313 202.344 33.57C202.083 33.3087 201.663 33.178 201.084 33.178ZM208 37.126C207.039 37.126 206.306 36.832 205.802 36.244C205.307 35.656 205.06 34.8953 205.06 33.962C205.06 33.3367 205.167 32.786 205.382 32.31C205.606 31.834 205.933 31.4607 206.362 31.19C206.801 30.9193 207.342 30.784 207.986 30.784C208.957 30.784 209.689 31.078 210.184 31.666C210.688 32.254 210.94 33.0193 210.94 33.962C210.94 34.578 210.828 35.124 210.604 35.6C210.389 36.076 210.063 36.4493 209.624 36.72C209.195 36.9907 208.653 37.126 208 37.126ZM208 36.076C208.579 36.076 209.013 35.8893 209.302 35.516C209.591 35.1333 209.736 34.6107 209.736 33.948C209.736 33.2853 209.587 32.7673 209.288 32.394C208.999 32.0207 208.565 31.834 207.986 31.834C207.417 31.834 206.987 32.0253 206.698 32.408C206.409 32.7813 206.264 33.2993 206.264 33.962C206.264 34.6247 206.409 35.1427 206.698 35.516C206.997 35.8893 207.431 36.076 208 36.076ZM214.356 37.126C213.675 37.126 213.147 36.9673 212.774 36.65C212.41 36.3327 212.228 35.8893 212.228 35.32C212.228 34.8907 212.317 34.5547 212.494 34.312C212.681 34.06 212.923 33.8687 213.222 33.738C213.521 33.6073 213.852 33.5187 214.216 33.472L215.518 33.29C215.761 33.2527 215.943 33.1873 216.064 33.094C216.195 33.0007 216.26 32.8373 216.26 32.604C216.26 32.3427 216.157 32.1467 215.952 32.016C215.747 31.8853 215.359 31.82 214.79 31.82H212.956V30.966C213.18 30.938 213.455 30.91 213.782 30.882C214.118 30.854 214.445 30.84 214.762 30.84C215.649 30.84 216.307 30.9847 216.736 31.274C217.165 31.554 217.38 32.0767 217.38 32.842V37H216.4L216.316 36.272C216.148 36.5053 215.905 36.706 215.588 36.874C215.271 37.042 214.86 37.126 214.356 37.126ZM214.566 36.174C214.855 36.174 215.126 36.132 215.378 36.048C215.63 35.964 215.835 35.838 215.994 35.67C216.153 35.4927 216.232 35.2733 216.232 35.012V34.074L214.454 34.326C214.109 34.3727 213.843 34.4613 213.656 34.592C213.469 34.7227 213.376 34.9373 213.376 35.236C213.376 35.5533 213.483 35.7913 213.698 35.95C213.922 36.0993 214.211 36.174 214.566 36.174ZM220.376 37V31.918H219.116V30.91H221.384L221.524 32.072C221.748 31.7267 222.075 31.4373 222.504 31.204C222.933 30.9613 223.461 30.84 224.086 30.84C224.198 30.84 224.305 30.8447 224.408 30.854C224.511 30.8633 224.599 30.8773 224.674 30.896V31.946H224.128C223.335 31.946 222.705 32.1327 222.238 32.506C221.781 32.8793 221.552 33.4533 221.552 34.228V37H220.376ZM228.678 37.126C228.118 37.126 227.642 36.9907 227.25 36.72C226.858 36.44 226.559 36.062 226.354 35.586C226.149 35.11 226.046 34.578 226.046 33.99C226.046 33.374 226.149 32.828 226.354 32.352C226.569 31.8667 226.877 31.484 227.278 31.204C227.689 30.924 228.188 30.784 228.776 30.784C229.149 30.784 229.495 30.854 229.812 30.994C230.139 31.134 230.405 31.3347 230.61 31.596V28.39H231.786V37H230.778L230.68 36.174C230.475 36.482 230.199 36.72 229.854 36.888C229.509 37.0467 229.117 37.126 228.678 37.126ZM228.986 36.076C229.266 36.076 229.527 36.0247 229.77 35.922C230.022 35.8193 230.223 35.6653 230.372 35.46C230.531 35.2453 230.61 34.9793 230.61 34.662V33.234C230.61 32.7673 230.442 32.4173 230.106 32.184C229.779 31.9507 229.406 31.834 228.986 31.834C228.417 31.834 227.983 32.03 227.684 32.422C227.395 32.8047 227.25 33.318 227.25 33.962C227.25 34.5967 227.395 35.11 227.684 35.502C227.983 35.8847 228.417 36.076 228.986 36.076ZM236.42 37.07C235.617 37.07 234.978 36.9487 234.502 36.706C234.035 36.454 233.699 36.0993 233.494 35.642C233.289 35.1753 233.186 34.62 233.186 33.976C233.186 33.3787 233.298 32.842 233.522 32.366C233.746 31.8807 234.077 31.498 234.516 31.218C234.955 30.9287 235.487 30.784 236.112 30.784C237.017 30.784 237.694 31.0593 238.142 31.61C238.59 32.1607 238.814 32.8653 238.814 33.724C238.814 33.8173 238.809 33.9293 238.8 34.06C238.791 34.1907 238.777 34.3073 238.758 34.41H234.404C234.46 34.9793 234.656 35.3993 234.992 35.67C235.328 35.9313 235.818 36.062 236.462 36.062H238.254V36.944C238.077 36.9813 237.811 37.0093 237.456 37.028C237.101 37.056 236.756 37.07 236.42 37.07ZM236.112 31.764C235.608 31.764 235.211 31.9227 234.922 32.24C234.633 32.548 234.46 32.9727 234.404 33.514H237.288C237.419 33.514 237.503 33.4907 237.54 33.444C237.587 33.3973 237.61 33.3087 237.61 33.178C237.61 32.8047 237.475 32.478 237.204 32.198C236.943 31.9087 236.579 31.764 236.112 31.764ZM242.678 37.126C242.118 37.126 241.642 36.9907 241.25 36.72C240.858 36.44 240.559 36.062 240.354 35.586C240.149 35.11 240.046 34.578 240.046 33.99C240.046 33.374 240.149 32.828 240.354 32.352C240.569 31.8667 240.877 31.484 241.278 31.204C241.689 30.924 242.188 30.784 242.776 30.784C243.149 30.784 243.495 30.854 243.812 30.994C244.139 31.134 244.405 31.3347 244.61 31.596V28.39H245.786V37H244.778L244.68 36.174C244.475 36.482 244.199 36.72 243.854 36.888C243.509 37.0467 243.117 37.126 242.678 37.126ZM242.986 36.076C243.266 36.076 243.527 36.0247 243.77 35.922C244.022 35.8193 244.223 35.6653 244.372 35.46C244.531 35.2453 244.61 34.9793 244.61 34.662V33.234C244.61 32.7673 244.442 32.4173 244.106 32.184C243.779 31.9507 243.406 31.834 242.986 31.834C242.417 31.834 241.983 32.03 241.684 32.422C241.395 32.8047 241.25 33.318 241.25 33.962C241.25 34.5967 241.395 35.11 241.684 35.502C241.983 35.8847 242.417 36.076 242.986 36.076ZM256.748 37.07C256.244 37.07 255.819 37.056 255.474 37.028C255.138 37.0093 254.853 36.9813 254.62 36.944V36.076H256.776C257.317 36.076 257.709 36.0107 257.952 35.88C258.195 35.74 258.316 35.53 258.316 35.25C258.316 35.054 258.255 34.9 258.134 34.788C258.022 34.6667 257.784 34.5827 257.42 34.536L256.524 34.41C255.824 34.3073 255.311 34.13 254.984 33.878C254.657 33.626 254.494 33.2107 254.494 32.632C254.494 32.0627 254.704 31.624 255.124 31.316C255.544 30.9987 256.221 30.84 257.154 30.84C257.593 30.84 257.975 30.854 258.302 30.882C258.629 30.9007 258.904 30.9287 259.128 30.966V31.834H257.112C256.599 31.834 256.23 31.8993 256.006 32.03C255.782 32.1513 255.67 32.352 255.67 32.632C255.67 32.8373 255.735 33.0007 255.866 33.122C255.997 33.2433 256.263 33.3273 256.664 33.374L257.56 33.486C258.195 33.5607 258.675 33.7287 259.002 33.99C259.329 34.2513 259.492 34.6667 259.492 35.236C259.492 35.8053 259.282 36.2533 258.862 36.58C258.451 36.9067 257.747 37.07 256.748 37.07ZM264.42 37.07C263.617 37.07 262.978 36.9487 262.502 36.706C262.035 36.454 261.699 36.0993 261.494 35.642C261.289 35.1753 261.186 34.62 261.186 33.976C261.186 33.3787 261.298 32.842 261.522 32.366C261.746 31.8807 262.077 31.498 262.516 31.218C262.955 30.9287 263.487 30.784 264.112 30.784C265.017 30.784 265.694 31.0593 266.142 31.61C266.59 32.1607 266.814 32.8653 266.814 33.724C266.814 33.8173 266.809 33.9293 266.8 34.06C266.791 34.1907 266.777 34.3073 266.758 34.41H262.404C262.46 34.9793 262.656 35.3993 262.992 35.67C263.328 35.9313 263.818 36.062 264.462 36.062H266.254V36.944C266.077 36.9813 265.811 37.0093 265.456 37.028C265.101 37.056 264.756 37.07 264.42 37.07ZM264.112 31.764C263.608 31.764 263.211 31.9227 262.922 32.24C262.633 32.548 262.46 32.9727 262.404 33.514H265.288C265.419 33.514 265.503 33.4907 265.54 33.444C265.587 33.3973 265.61 33.3087 265.61 33.178C265.61 32.8047 265.475 32.478 265.204 32.198C264.943 31.9087 264.579 31.764 264.112 31.764ZM270.356 37.126C269.675 37.126 269.147 36.9673 268.774 36.65C268.41 36.3327 268.228 35.8893 268.228 35.32C268.228 34.8907 268.317 34.5547 268.494 34.312C268.681 34.06 268.923 33.8687 269.222 33.738C269.521 33.6073 269.852 33.5187 270.216 33.472L271.518 33.29C271.761 33.2527 271.943 33.1873 272.064 33.094C272.195 33.0007 272.26 32.8373 272.26 32.604C272.26 32.3427 272.157 32.1467 271.952 32.016C271.747 31.8853 271.359 31.82 270.79 31.82H268.956V30.966C269.18 30.938 269.455 30.91 269.782 30.882C270.118 30.854 270.445 30.84 270.762 30.84C271.649 30.84 272.307 30.9847 272.736 31.274C273.165 31.554 273.38 32.0767 273.38 32.842V37H272.4L272.316 36.272C272.148 36.5053 271.905 36.706 271.588 36.874C271.271 37.042 270.86 37.126 270.356 37.126ZM270.566 36.174C270.855 36.174 271.126 36.132 271.378 36.048C271.63 35.964 271.835 35.838 271.994 35.67C272.153 35.4927 272.232 35.2733 272.232 35.012V34.074L270.454 34.326C270.109 34.3727 269.843 34.4613 269.656 34.592C269.469 34.7227 269.376 34.9373 269.376 35.236C269.376 35.5533 269.483 35.7913 269.698 35.95C269.922 36.0993 270.211 36.174 270.566 36.174ZM279.162 37.07C278.527 37.07 278.033 36.9953 277.678 36.846C277.323 36.6873 277.071 36.4493 276.922 36.132C276.782 35.8147 276.712 35.4087 276.712 34.914V31.904H275.13V30.952H276.208C276.404 30.952 276.539 30.9193 276.614 30.854C276.698 30.7793 276.749 30.6253 276.768 30.392L276.894 28.866H277.888V30.91H280.562V31.904H277.888V34.886C277.888 35.3247 278.005 35.6327 278.238 35.81C278.471 35.978 278.845 36.062 279.358 36.062H280.562V36.944C280.394 36.9813 280.184 37.0093 279.932 37.028C279.689 37.056 279.433 37.07 279.162 37.07Z" fill="#2C2C2C"></path>
            </g>
            <g id="Frame 11231341">
                <circle id="Ellipse 12_4" opacity="0.4" cx="346" cy="33" r="9.5" transform="rotate(90 346 33)" fill="#D015B2" fill-opacity="0.7" stroke="white"></circle>
                <path id="Title_3" d="M365.5 37.168C364.809 37.168 364.254 37.0187 363.834 36.72C363.423 36.4213 363.125 36.02 362.938 35.516C362.761 35.0027 362.672 34.4287 362.672 33.794V28.698H363.89V33.78C363.89 34.452 364.011 35.0073 364.254 35.446C364.497 35.8753 364.912 36.09 365.5 36.09C366.097 36.09 366.513 35.8753 366.746 35.446C366.989 35.0073 367.11 34.452 367.11 33.78V28.698H368.328V33.794C368.328 34.4193 368.235 34.9887 368.048 35.502C367.861 36.006 367.563 36.412 367.152 36.72C366.741 37.0187 366.191 37.168 365.5 37.168ZM369.938 37V30.91H370.946L371.044 31.708C371.221 31.4373 371.473 31.218 371.8 31.05C372.136 30.8727 372.537 30.784 373.004 30.784C373.667 30.784 374.185 30.9753 374.558 31.358C374.941 31.7407 375.132 32.296 375.132 33.024V37H373.956V33.206C373.956 32.2913 373.531 31.834 372.682 31.834C372.281 31.834 371.917 31.9553 371.59 32.198C371.273 32.4313 371.114 32.772 371.114 33.22V37H369.938ZM379.248 37.07C378.744 37.07 378.319 37.056 377.974 37.028C377.638 37.0093 377.353 36.9813 377.12 36.944V36.076H379.276C379.817 36.076 380.209 36.0107 380.452 35.88C380.695 35.74 380.816 35.53 380.816 35.25C380.816 35.054 380.755 34.9 380.634 34.788C380.522 34.6667 380.284 34.5827 379.92 34.536L379.024 34.41C378.324 34.3073 377.811 34.13 377.484 33.878C377.157 33.626 376.994 33.2107 376.994 32.632C376.994 32.0627 377.204 31.624 377.624 31.316C378.044 30.9987 378.721 30.84 379.654 30.84C380.093 30.84 380.475 30.854 380.802 30.882C381.129 30.9007 381.404 30.9287 381.628 30.966V31.834H379.612C379.099 31.834 378.73 31.8993 378.506 32.03C378.282 32.1513 378.17 32.352 378.17 32.632C378.17 32.8373 378.235 33.0007 378.366 33.122C378.497 33.2433 378.763 33.3273 379.164 33.374L380.06 33.486C380.695 33.5607 381.175 33.7287 381.502 33.99C381.829 34.2513 381.992 34.6667 381.992 35.236C381.992 35.8053 381.782 36.2533 381.362 36.58C380.951 36.9067 380.247 37.07 379.248 37.07ZM386.5 37.126C385.539 37.126 384.806 36.832 384.302 36.244C383.807 35.656 383.56 34.8953 383.56 33.962C383.56 33.3367 383.667 32.786 383.882 32.31C384.106 31.834 384.433 31.4607 384.862 31.19C385.301 30.9193 385.842 30.784 386.486 30.784C387.457 30.784 388.189 31.078 388.684 31.666C389.188 32.254 389.44 33.0193 389.44 33.962C389.44 34.578 389.328 35.124 389.104 35.6C388.889 36.076 388.563 36.4493 388.124 36.72C387.695 36.9907 387.153 37.126 386.5 37.126ZM386.5 36.076C387.079 36.076 387.513 35.8893 387.802 35.516C388.091 35.1333 388.236 34.6107 388.236 33.948C388.236 33.2853 388.087 32.7673 387.788 32.394C387.499 32.0207 387.065 31.834 386.486 31.834C385.917 31.834 385.487 32.0253 385.198 32.408C384.909 32.7813 384.764 33.2993 384.764 33.962C384.764 34.6247 384.909 35.1427 385.198 35.516C385.497 35.8893 385.931 36.076 386.5 36.076ZM394.998 37.07C394.13 37.07 393.514 36.8833 393.15 36.51C392.795 36.1367 392.618 35.5533 392.618 34.76V29.398H390.658V28.39H393.794V34.746C393.794 35.2313 393.911 35.572 394.144 35.768C394.377 35.964 394.769 36.062 395.32 36.062H396.174V36.958C396.025 36.9953 395.838 37.0233 395.614 37.042C395.399 37.0607 395.194 37.07 394.998 37.07ZM400.178 37.126C399.618 37.126 399.142 36.9907 398.75 36.72C398.358 36.44 398.059 36.062 397.854 35.586C397.649 35.11 397.546 34.578 397.546 33.99C397.546 33.374 397.649 32.828 397.854 32.352C398.069 31.8667 398.377 31.484 398.778 31.204C399.189 30.924 399.688 30.784 400.276 30.784C400.649 30.784 400.995 30.854 401.312 30.994C401.639 31.134 401.905 31.3347 402.11 31.596V28.39H403.286V37H402.278L402.18 36.174C401.975 36.482 401.699 36.72 401.354 36.888C401.009 37.0467 400.617 37.126 400.178 37.126ZM400.486 36.076C400.766 36.076 401.027 36.0247 401.27 35.922C401.522 35.8193 401.723 35.6653 401.872 35.46C402.031 35.2453 402.11 34.9793 402.11 34.662V33.234C402.11 32.7673 401.942 32.4173 401.606 32.184C401.279 31.9507 400.906 31.834 400.486 31.834C399.917 31.834 399.483 32.03 399.184 32.422C398.895 32.8047 398.75 33.318 398.75 33.962C398.75 34.5967 398.895 35.11 399.184 35.502C399.483 35.8847 399.917 36.076 400.486 36.076ZM414.248 37.07C413.744 37.07 413.319 37.056 412.974 37.028C412.638 37.0093 412.353 36.9813 412.12 36.944V36.076H414.276C414.817 36.076 415.209 36.0107 415.452 35.88C415.695 35.74 415.816 35.53 415.816 35.25C415.816 35.054 415.755 34.9 415.634 34.788C415.522 34.6667 415.284 34.5827 414.92 34.536L414.024 34.41C413.324 34.3073 412.811 34.13 412.484 33.878C412.157 33.626 411.994 33.2107 411.994 32.632C411.994 32.0627 412.204 31.624 412.624 31.316C413.044 30.9987 413.721 30.84 414.654 30.84C415.093 30.84 415.475 30.854 415.802 30.882C416.129 30.9007 416.404 30.9287 416.628 30.966V31.834H414.612C414.099 31.834 413.73 31.8993 413.506 32.03C413.282 32.1513 413.17 32.352 413.17 32.632C413.17 32.8373 413.235 33.0007 413.366 33.122C413.497 33.2433 413.763 33.3273 414.164 33.374L415.06 33.486C415.695 33.5607 416.175 33.7287 416.502 33.99C416.829 34.2513 416.992 34.6667 416.992 35.236C416.992 35.8053 416.782 36.2533 416.362 36.58C415.951 36.9067 415.247 37.07 414.248 37.07ZM421.92 37.07C421.117 37.07 420.478 36.9487 420.002 36.706C419.535 36.454 419.199 36.0993 418.994 35.642C418.789 35.1753 418.686 34.62 418.686 33.976C418.686 33.3787 418.798 32.842 419.022 32.366C419.246 31.8807 419.577 31.498 420.016 31.218C420.455 30.9287 420.987 30.784 421.612 30.784C422.517 30.784 423.194 31.0593 423.642 31.61C424.09 32.1607 424.314 32.8653 424.314 33.724C424.314 33.8173 424.309 33.9293 424.3 34.06C424.291 34.1907 424.277 34.3073 424.258 34.41H419.904C419.96 34.9793 420.156 35.3993 420.492 35.67C420.828 35.9313 421.318 36.062 421.962 36.062H423.754V36.944C423.577 36.9813 423.311 37.0093 422.956 37.028C422.601 37.056 422.256 37.07 421.92 37.07ZM421.612 31.764C421.108 31.764 420.711 31.9227 420.422 32.24C420.133 32.548 419.96 32.9727 419.904 33.514H422.788C422.919 33.514 423.003 33.4907 423.04 33.444C423.087 33.3973 423.11 33.3087 423.11 33.178C423.11 32.8047 422.975 32.478 422.704 32.198C422.443 31.9087 422.079 31.764 421.612 31.764ZM427.856 37.126C427.175 37.126 426.647 36.9673 426.274 36.65C425.91 36.3327 425.728 35.8893 425.728 35.32C425.728 34.8907 425.817 34.5547 425.994 34.312C426.181 34.06 426.423 33.8687 426.722 33.738C427.021 33.6073 427.352 33.5187 427.716 33.472L429.018 33.29C429.261 33.2527 429.443 33.1873 429.564 33.094C429.695 33.0007 429.76 32.8373 429.76 32.604C429.76 32.3427 429.657 32.1467 429.452 32.016C429.247 31.8853 428.859 31.82 428.29 31.82H426.456V30.966C426.68 30.938 426.955 30.91 427.282 30.882C427.618 30.854 427.945 30.84 428.262 30.84C429.149 30.84 429.807 30.9847 430.236 31.274C430.665 31.554 430.88 32.0767 430.88 32.842V37H429.9L429.816 36.272C429.648 36.5053 429.405 36.706 429.088 36.874C428.771 37.042 428.36 37.126 427.856 37.126ZM428.066 36.174C428.355 36.174 428.626 36.132 428.878 36.048C429.13 35.964 429.335 35.838 429.494 35.67C429.653 35.4927 429.732 35.2733 429.732 35.012V34.074L427.954 34.326C427.609 34.3727 427.343 34.4613 427.156 34.592C426.969 34.7227 426.876 34.9373 426.876 35.236C426.876 35.5533 426.983 35.7913 427.198 35.95C427.422 36.0993 427.711 36.174 428.066 36.174ZM436.662 37.07C436.027 37.07 435.533 36.9953 435.178 36.846C434.823 36.6873 434.571 36.4493 434.422 36.132C434.282 35.8147 434.212 35.4087 434.212 34.914V31.904H432.63V30.952H433.708C433.904 30.952 434.039 30.9193 434.114 30.854C434.198 30.7793 434.249 30.6253 434.268 30.392L434.394 28.866H435.388V30.91H438.062V31.904H435.388V34.886C435.388 35.3247 435.505 35.6327 435.738 35.81C435.971 35.978 436.345 36.062 436.858 36.062H438.062V36.944C437.894 36.9813 437.684 37.0093 437.432 37.028C437.189 37.056 436.933 37.07 436.662 37.07Z" fill="#2C2C2C"></path>
            </g>
        </g>
    </g>
    <defs>
        <clipPath id="clip0_140_17426">
            <rect width="453" height="732" fill="white"></rect>
        </clipPath>
    </defs>
</svg>
